<svg width="1000" height="1000" viewBox="0 0 1000 1000" fill="none" xmlns="http://www.w3.org/2000/svg">
<style>
    path { fill: #000000; }
    @media (prefers-color-scheme: dark) {
      path { fill: #ffffff; stroke:#000000; stroke-width:20px;}
    }
  </style>
<path d="M346.773 15.1763C406.122 31.0497 447.529 70.0432 468.577 130.086C472.373 140.784 483.069 167.616 483.069 192.974L483.069 989.005L413.354 989.005C408.758 779.561 408.538 569.743 408.538 360.251C407.378 332.194 393.355 292.962 381.968 271.567C370.237 249.137 344.703 222.911 324.344 211.179C294.325 194.27 278.797 192.89 139.74 192.89L10.0001 192.89L10.0001 101.445L10.0001 10L169.415 10.3451C291.909 10.3451 333.316 11.7255 346.773 15.1763Z"/>
<path d="M266.024 231.728C302.648 238.979 324.416 253.827 343.764 284.559C357.93 307.004 375.041 341.301 375.279 387.064C376.274 578.572 373.634 785.285 374.781 989.675L304.114 989.94C304.114 989.94 303.648 894.02 302.957 760.387C302.266 544.918 300.575 515.222 295.393 497.266C281.918 449.269 259.114 424.407 219.035 413.357C215.234 412.321 168.59 410.94 115.381 410.25C62.1724 409.904 10.0001 410.25 10.0001 410.25L10.0001 226.893L126.783 226.893C209.015 227.239 250.476 228.275 266.024 231.728Z"/>
<path d="M653.227 15.1763C593.878 31.0497 552.471 70.0432 531.423 130.086C527.628 140.784 516.931 167.616 516.931 192.974L516.931 989.005L586.646 989.005C591.242 779.561 591.463 569.743 591.463 360.251C592.622 332.194 606.645 292.962 618.032 271.567C629.764 249.137 655.298 222.911 675.656 211.179C705.675 194.27 721.203 192.89 860.26 192.89L990 192.89L990 101.445L990 10L830.585 10.3451C708.091 10.3451 666.684 11.7255 653.227 15.1763Z"/>
<path d="M733.976 231.728C697.352 238.979 675.584 253.827 656.236 284.559C642.07 307.004 624.959 341.301 624.721 387.064C623.726 578.572 626.366 785.285 625.218 989.675C648.769 989.42 672.326 990.22 695.886 989.94L697.043 760.387C697.043 760.387 699.425 515.222 704.607 497.266C718.082 449.269 740.886 424.407 780.965 413.357C784.766 412.321 831.41 410.94 884.619 410.25C937.828 409.904 990 409 990 409C990 348.298 990 287.596 990 226.893L873.217 226.893C790.985 227.239 749.524 228.275 733.976 231.728Z"/>
</svg>
