<?xml version="1.0" standalone="no"?>
<!DOCTYPE svg PUBLIC "-//W3C//DTD SVG 20010904//EN"
 "http://www.w3.org/TR/2001/REC-SVG-20010904/DTD/svg10.dtd">
<svg version="1.0" xmlns="http://www.w3.org/2000/svg"
 width="289.000000pt" height="289.000000pt" viewBox="0 0 289.000000 289.000000"
 preserveAspectRatio="xMidYMid meet">
<metadata>
Created by potrace 1.11, written by Peter Selinger 2001-2013
</metadata>
<g transform="translate(0.000000,289.000000) scale(0.100000,-0.100000)"
fill="#000000" stroke="none">
<path d="M20 2625 l0 -265 369 0 c205 0 392 -4 421 -10 118 -22 229 -107 288
-218 37 -69 69 -182 78 -271 4 -36 7 -468 7 -958 0 -502 3 -893 8 -894 12 0
176 0 189 0 7 1 10 385 8 1209 -3 1191 -4 1208 -24 1277 -60 200 -161 311
-335 369 -74 24 -75 24 -541 25 l-468 2 0 -266z"/>
<path d="M1894 2875 c-172 -46 -292 -159 -353 -333 -11 -31 -23 -73 -27 -92
-5 -19 -10 -576 -11 -1238 l-4 -1202 23 -1 c86 -2 169 0 177 5 6 4 9 356 10
909 0 496 3 925 6 952 9 80 44 195 77 257 34 65 108 141 167 175 87 49 132 53
535 53 l376 0 0 265 0 265 -462 -1 c-355 0 -475 -4 -514 -14z"/>
<path d="M20 2004 c0 -204 3 -264 13 -265 6 0 138 -1 292 -2 243 -2 287 -5
334 -21 90 -31 151 -107 188 -233 14 -51 17 -141 20 -762 1 -387 5 -706 8
-709 4 -4 90 -5 178 -3 l22 1 -1 908 c-1 648 -4 924 -13 967 -41 211 -108 304
-261 361 -38 14 -99 17 -412 19 l-368 3 0 -264z"/>
<path d="M2129 2253 c-106 -21 -169 -64 -225 -153 -41 -65 -60 -123 -80 -245
-4 -22 -8 -446 -8 -942 -1 -900 -1 -903 19 -904 80 -2 178 0 182 5 3 3 6 321
8 708 2 624 4 710 19 762 39 139 105 211 221 243 11 3 146 7 300 9 154 1 286
3 293 3 9 1 12 61 12 264 l0 264 -338 0 c-238 -1 -358 -4 -403 -14z"/>
</g>
</svg>
