<?xml version="1.0" encoding="utf-8"?>
<!DOCTYPE svg PUBLIC "-//W3C//DTD SVG 1.1//EN" "http://www.w3.org/Graphics/SVG/1.1/DTD/svg11.dtd">
<svg id="color-wheel" version="1.1"  xmlns="http://www.w3.org/2000/svg" xmlns:xhtml="http://www.w3.org/1999/xhtml" viewBox="0 0 700 800" style=" background-color:#f0f4fa;">
<style id="color-wheel-stylesheet">
.clr-fill-white-000{fill:#ffffff}
.clr-fill-black-100{fill:#000000}
.clr-fill-amber-010{fill:#faf6cf}
.clr-fill-amber-020{fill:#f7e379}
.clr-fill-amber-030{fill:#f5c518}
.clr-fill-amber-040{fill:#d9a514}
.clr-fill-amber-050{fill:#b3870e}
.clr-fill-amber-060{fill:#946613}
.clr-fill-amber-070{fill:#70491c}
.clr-fill-amber-080{fill:#54341f}
.clr-fill-amber-090{fill:#38251b}
.clr-fill-amber-100{fill:#1c1613}
.clr-fill-aqua-010{fill:#ebf3f7}
.clr-fill-aqua-020{fill:#c9e7f5}
.clr-fill-aqua-030{fill:#8bd3f7}
.clr-fill-aqua-040{fill:#48b8f0}
.clr-fill-aqua-050{fill:#1195d6}
.clr-fill-aqua-060{fill:#0073ba}
.clr-fill-aqua-070{fill:#08548a}
.clr-fill-aqua-080{fill:#0e3d66}
.clr-fill-aqua-090{fill:#0c2b45}
.clr-fill-aqua-100{fill:#0b1724}
.clr-fill-blue-010{fill:#f0f4fa}
.clr-fill-blue-020{fill:#d4e4fa}
.clr-fill-blue-030{fill:#adccf7}
.clr-fill-blue-040{fill:#75b1ff}
.clr-fill-blue-050{fill:#3d8df5}
.clr-fill-blue-060{fill:#186ade}
.clr-fill-blue-070{fill:#0d4ea6}
.clr-fill-blue-080{fill:#103a75}
.clr-fill-blue-090{fill:#11294d}
.clr-fill-blue-100{fill:#0d1826}
.clr-fill-gray-010{fill:#f2f5f7}
.clr-fill-gray-020{fill:#dce3e8}
.clr-fill-gray-030{fill:#c1ccd6}
.clr-fill-gray-040{fill:#9fb1bd}
.clr-fill-gray-050{fill:#7a909e}
.clr-fill-gray-060{fill:#5b7282}
.clr-fill-gray-070{fill:#3e5463}
.clr-fill-gray-080{fill:#2a3f4d}
.clr-fill-gray-090{fill:#1c2b36}
.clr-fill-gray-100{fill:#0e171f}
.clr-fill-gray-110{fill:#090F14}
.clr-fill-green-010{fill:#ebf7ed}
.clr-fill-green-020{fill:#c7ebd1}
.clr-fill-green-030{fill:#88dba8}
.clr-fill-green-040{fill:#43c478}
.clr-fill-green-050{fill:#16a163}
.clr-fill-green-060{fill:#077d55}
.clr-fill-green-070{fill:#075e45}
.clr-fill-green-080{fill:#094536}
.clr-fill-green-090{fill:#092e25}
.clr-fill-green-100{fill:#081a15}
.clr-fill-lime-010{fill:#ebf7da}
.clr-fill-lime-020{fill:#d5f0b1}
.clr-fill-lime-030{fill:#aad971}
.clr-fill-lime-040{fill:#78bf39}
.clr-fill-lime-050{fill:#52a31d}
.clr-fill-lime-060{fill:#3c7d0e}
.clr-fill-lime-070{fill:#2e5c0e}
.clr-fill-lime-080{fill:#254211}
.clr-fill-lime-090{fill:#1c2e10}
.clr-fill-lime-100{fill:#121a0d}
.clr-fill-orange-010{fill:#fcf2eb}
.clr-fill-orange-020{fill:#fcddc7}
.clr-fill-orange-030{fill:#fcbc97}
.clr-fill-orange-040{fill:#fc9162}
.clr-fill-orange-050{fill:#e86427}
.clr-fill-orange-060{fill:#bf4815}
.clr-fill-orange-070{fill:#8f3415}
.clr-fill-orange-080{fill:#632b17}
.clr-fill-orange-090{fill:#402117}
.clr-fill-orange-100{fill:#1f1410}
.clr-fill-pink-010{fill:#fcf0f8}
.clr-fill-pink-020{fill:#f7daed}
.clr-fill-pink-030{fill:#f7b7e2}
.clr-fill-pink-040{fill:#fa87d4}
.clr-fill-pink-050{fill:#ed4cb7}
.clr-fill-pink-060{fill:#cc1d92}
.clr-fill-pink-070{fill:#961574}
.clr-fill-pink-080{fill:#6b155a}
.clr-fill-pink-090{fill:#47153f}
.clr-fill-pink-100{fill:#241020}
.clr-fill-purple-010{fill:#f7f2fc}
.clr-fill-purple-020{fill:#eadcfc}
.clr-fill-purple-030{fill:#dabefa}
.clr-fill-purple-040{fill:#c89afc}
.clr-fill-purple-050{fill:#ac71f0}
.clr-fill-purple-060{fill:#8f49de}
.clr-fill-purple-070{fill:#6b30ab}
.clr-fill-purple-080{fill:#4c277d}
.clr-fill-purple-090{fill:#331f4d}
.clr-fill-purple-100{fill:#1c1229}
.clr-fill-red-010{fill:#fcf0f0}
.clr-fill-red-020{fill:#fadcd9}
.clr-fill-red-030{fill:#fabbb4}
.clr-fill-red-040{fill:#fc9086}
.clr-fill-red-050{fill:#fa5343}
.clr-fill-red-060{fill:#d91f11}
.clr-fill-red-070{fill:#a1160a}
.clr-fill-red-080{fill:#75160c}
.clr-fill-red-090{fill:#4f150f}
.clr-fill-red-100{fill:#24120c}
.clr-fill-slate-010{fill:#f2f4f7}
.clr-fill-slate-020{fill:#dfe2eb}
.clr-fill-slate-030{fill:#c5cad9}
.clr-fill-slate-040{fill:#a7adc2}
.clr-fill-slate-050{fill:#838ca6}
.clr-fill-slate-060{fill:#656e8a}
.clr-fill-slate-070{fill:#47516e}
.clr-fill-slate-080{fill:#313b57}
.clr-fill-slate-090{fill:#202842}
.clr-fill-slate-100{fill:#101529}
.clr-fill-teal-010{fill:#ebf5f4}
.clr-fill-teal-020{fill:#beebe7}
.clr-fill-teal-030{fill:#86d9d4}
.clr-fill-teal-040{fill:#4ebfb9}
.clr-fill-teal-050{fill:#279c9c}
.clr-fill-teal-060{fill:#167b7d}
.clr-fill-teal-070{fill:#155c5e}
.clr-fill-teal-080{fill:#124241}
.clr-fill-teal-090{fill:#102e2d}
.clr-fill-teal-100{fill:#0c1a19}
.clr-fill-turquoise-010{fill:#ebf5f4}
.clr-fill-turquoise-020{fill:#c7e8ed}
.clr-fill-turquoise-030{fill:#81d8e6}
.clr-fill-turquoise-040{fill:#45bcd1}
.clr-fill-turquoise-050{fill:#159ab3}
.clr-fill-turquoise-060{fill:#067a91}
.clr-fill-turquoise-070{fill:#09596b}
.clr-fill-turquoise-080{fill:#0c424d}
.clr-fill-turquoise-090{fill:#102d33}
.clr-fill-turquoise-100{fill:#0f181a}
.clr-fill-ultramarine-010{fill:#f2f3fa}
.clr-fill-ultramarine-020{fill:#dee0fa}
.clr-fill-ultramarine-030{fill:#c2c7fc}
.clr-fill-ultramarine-040{fill:#a0a7fa}
.clr-fill-ultramarine-050{fill:#7681fc}
.clr-fill-ultramarine-060{fill:#545fe8}
.clr-fill-ultramarine-070{fill:#3a45b0}
.clr-fill-ultramarine-080{fill:#2f337d}
.clr-fill-ultramarine-090{fill:#23254d}
.clr-fill-ultramarine-100{fill:#141429}
.clr-fill-yellow-010{fill:#faf6cf}
.clr-fill-yellow-020{fill:#f7e379}
.clr-fill-yellow-030{fill:#f5c518}
.clr-fill-yellow-040{fill:#d9a514}
.clr-fill-yellow-050{fill:#b3870e}
.clr-fill-yellow-060{fill:#946613}
.clr-fill-yellow-070{fill:#70491c}
.clr-fill-yellow-080{fill:#54341f}
.clr-fill-yellow-090{fill:#38251b}
.clr-fill-yellow-100{fill:#1c1613}
.color-wheel-text{font-family:Goldman-Sans-Bold,sans-serif;font-size:1rem;line-height:1.5rem;}
.color-wheel-hue-value{font-family:Goldman-Sans-Medium,sans-serif;font-size:.8rem;line-height:1rem;}
.color-legend-text{font-family:'Roboto Mono', monospace, sans-serif;font-size:.95rem;}
#wheel path:hover,  #center-circle:hover, #the-grays rect:hover { stroke-width:2; cursor: pointer; }
#lookup text:hover {cursor: pointer; }

#wheel path,  #center-circle, #the-grays rect { stroke:#1c2b36; stroke-width:0;}
</style>


<g id="color-legend" transform="translate(0,0)">
<rect id="color-block" x="120" y="5" width="20" height="20" class="clr-fill-gray-010" />
<text id="color-name" class="color-legend-text" x="150" y="20" ></text>
<text id="color-hex" class="color-legend-text" x="300" y="20" ></text>
<text id="color-RGB"  class="color-legend-text" x="420" y="20" ></text>
<text id="color-text-AAA"  class="color-legend-text" x="110" y="40"  ></text>
</g>

<g id="lookup">
<text id="hex-lookup" class="color-wheel-hue-value" fill="#186ADE" x="30" y="720" >Look up a Hex Color</text>
</g>

<g id="content"  transform="translate(0 30)">
<g id="wheel">
<path class="clr-fill-red-010" d="M 367.107670601503 292.6673389071494 A 54.54545454545455 54.54545454545455 0 0 0 340.1903991681031 285.4548777641205  L 340.0986902354668 311.7274449744025 A 28.272727272727273 28.272727272727273 0 0 1 354.0508092617791 315.46590400020574 Z"></path><path class="clr-fill-red-020" d="M 380.66150590225453 269.00100836072403 A 81.81818181818181 81.81818181818181 0 0 0 340.28559875215467 258.18231664618077  L 340.19388981951835 284.45488385646274 A 55.54545454545455 55.54545454545455 0 0 1 367.60464456253055 291.79957345378045 Z"></path><path class="clr-fill-red-030" d="M 394.215341203006 245.3346778142987 A 109.0909090909091 109.0909090909091 0 0 0 340.3807983362063 230.90975552824105  L 340.2890894035699 257.182322738523 A 82.81818181818181 82.81818181818181 0 0 1 381.1584798632821 268.1332429073551 Z"></path><path class="clr-fill-red-040" d="M 407.76917650375754 221.66834726787337 A 136.36363636363637 136.36363636363637 0 0 0 340.47599792025784 203.6371944103013  L 340.38428898762146 229.90976162058325 A 110.0909090909091 110.0909090909091 0 0 1 394.7123151640336 244.46691236092977 Z"></path><path class="clr-fill-red-050" d="M 421.32301180450906 198.00201672144806 A 163.63636363636363 163.63636363636363 0 0 0 340.5711975043094 176.3646332923616  L 340.4794885716731 202.6372005026435 A 137.36363636363637 137.36363636363637 0 0 1 408.2661504647851 220.80058181450443 Z"></path><path class="clr-fill-red-060" d="M 434.87684710526054 174.33568617502274 A 190.9090909090909 190.9090909090909 0 0 0 340.66639708836095 149.09207217442184  L 340.57468815572463 175.3646393847038 A 164.63636363636363 164.63636363636363 0 0 1 421.81998576553656 197.13425126807914 Z"></path><path class="clr-fill-red-070" d="M 448.43068240601207 150.6693556285974 A 218.1818181818182 218.1818181818182 0 0 0 340.7615966724125 121.8195110564821  L 340.6698877397762 148.09207826676405 A 191.9090909090909 191.9090909090909 0 0 1 435.3738210662881 173.4679207216538 Z"></path><path class="clr-fill-red-080" d="M 461.98451770676354 127.00302508217209 A 245.45454545454547 245.45454545454547 0 0 0 340.85679625646407 94.54694993854235  L 340.76508732382774 120.8195171488243 A 219.1818181818182 219.1818181818182 0 0 1 448.9276563670396 149.80159017522848 Z"></path><path class="clr-fill-red-090" d="M 475.53835300751507 103.33669453574674 A 272.72727272727275 272.72727272727275 0 0 0 340.9519958405156 67.27438882060261  L 340.8602869078793 93.54695603088456 A 246.45454545454547 246.45454545454547 0 0 1 462.48149166779115 126.13525962880314 Z"></path><path class="clr-fill-red-100" d="M 489.0921883082666 79.67036398932146 A 300 300 0 0 0 341.0471954245672 40.001827702662865  L 340.95548649193086 66.27439491294479 A 273.72727272727275 273.72727272727275 0 0 1 476.0353269685427 102.46892908237783 Z"></path><path class="clr-fill-orange-010" d="M 387.1422619247475 312.56254836562357 A 54.54545454545455 54.54545454545455 0 0 0 367.4374516343765 292.8577380752525  L 354.2217457638185 315.56459423567253 A 28.272727272727273 28.272727272727273 0 0 1 364.43540576432747 325.7782542361815 Z"></path><path class="clr-fill-orange-020" d="M 410.7133928871213 298.8438225484353 A 81.81818181818181 81.81818181818181 0 0 0 381.1561774515647 269.2866071128787  L 367.9404715810067 291.99346327329874 A 55.54545454545455 55.54545454545455 0 0 1 388.00653672670126 312.0595284189933 Z"></path><path class="clr-fill-orange-030" d="M 434.28452384949503 285.1250967312471 A 109.0909090909091 109.0909090909091 0 0 0 394.8749032687529 245.71547615050494  L 381.6591973981949 268.422332310925 A 82.81818181818181 82.81818181818181 0 0 1 411.577667689075 298.3408026018051 Z"></path><path class="clr-fill-orange-040" d="M 457.8556548118688 271.40637091405887 A 136.36363636363637 136.36363636363637 0 0 0 408.5936290859412 222.14434518813118  L 395.3779232153832 244.85120134855123 A 110.0909090909091 110.0909090909091 0 0 1 435.1487986514488 284.62207678461687 Z"></path><path class="clr-fill-orange-050" d="M 481.4267857742426 257.6876450968706 A 163.63636363636363 163.63636363636363 0 0 0 422.3123549031294 198.57321422575743  L 409.0966490325714 221.28007038617747 A 137.36363636363637 137.36363636363637 0 0 1 458.7199296138225 270.9033509674286 Z"></path><path class="clr-fill-orange-060" d="M 504.99791673661633 243.96891927968238 A 190.9090909090909 190.9090909090909 0 0 0 436.0310807203176 175.00208326338367  L 422.8153748497596 197.7089394238037 A 164.63636363636363 164.63636363636363 0 0 1 482.2910605761963 257.1846251502404 Z"></path><path class="clr-fill-orange-070" d="M 528.5690476989901 230.25019346249417 A 218.1818181818182 218.1818181818182 0 0 0 449.74980653750583 151.43095230100988  L 436.5341006669479 174.13780846142996 A 191.9090909090909 191.9090909090909 0 0 1 505.8621915385701 243.46589933305216 Z"></path><path class="clr-fill-orange-080" d="M 552.1401786613638 216.53146764530592 A 245.45454545454547 245.45454545454547 0 0 0 463.4685323546941 127.85982133863612  L 450.2528264841361 150.5666774990562 A 219.1818181818182 219.1818181818182 0 0 1 529.4333225009439 229.74717351586392 Z"></path><path class="clr-fill-orange-090" d="M 575.7113096237376 202.8127418281177 A 272.72727272727275 272.72727272727275 0 0 0 477.1872581718824 104.28869037626234  L 463.9715523013243 126.99554653668241 A 246.45454545454547 246.45454545454547 0 0 1 553.0044534633175 216.02844769867568 Z"></path><path class="clr-fill-orange-100" d="M 599.2824405861114 189.09401601092947 A 300 300 0 0 0 490.9059839890706 80.71755941388858  L 477.69027811851254 103.42441557430865 A 273.72727272727275 273.72727272727275 0 0 1 576.5755844256913 202.30972188148746 Z"></path><path class="clr-fill-yellow-010" d="M 394.5451222358795 339.8096008318969 A 54.54545454545455 54.54545454545455 0 0 0 387.3326610928506 312.892329398497  L 364.53409599979426 325.9491907382209 A 28.272727272727273 28.272727272727273 0 0 1 368.2725550255975 339.9013097645332 Z"></path><path class="clr-fill-yellow-020" d="M 421.81768335381923 339.71440124784533 A 81.81818181818181 81.81818181818181 0 0 0 410.99899163927597 299.33849409774547  L 388.20042654621955 312.39535543746945 A 55.54545454545455 55.54545454545455 0 0 1 395.54511614353726 339.80611018048165 Z"></path><path class="clr-fill-yellow-030" d="M 449.090244471759 339.6192016637938 A 109.0909090909091 109.0909090909091 0 0 0 434.6653221857013 285.784658796994  L 411.8667570926449 298.8415201367179 A 82.81818181818181 82.81818181818181 0 0 1 422.817677261477 339.7109105964301 Z"></path><path class="clr-fill-yellow-040" d="M 476.3628055896987 339.5240020797422 A 136.36363636363637 136.36363636363637 0 0 0 458.3316527321266 272.23082349624246  L 435.53308763907023 285.2876848359664 A 110.0909090909091 110.0909090909091 0 0 1 450.09023837941675 339.61571101237854 Z"></path><path class="clr-fill-yellow-050" d="M 503.6353667076384 339.42880249569066 A 163.63636363636363 163.63636363636363 0 0 0 481.99798327855194 258.67698819549094  L 459.1994181854956 271.7338495352149 A 137.36363636363637 137.36363636363637 0 0 1 477.3627994973565 339.520511428327 Z"></path><path class="clr-fill-yellow-060" d="M 530.9079278255781 339.3336029116391 A 190.9090909090909 190.9090909090909 0 0 0 505.6643138249773 245.12315289473946  L 482.86574873192086 258.1800142344634 A 164.63636363636363 164.63636363636363 0 0 1 504.63536061529624 339.4253118442754 Z"></path><path class="clr-fill-yellow-070" d="M 558.180488943518 339.23840332758755 A 218.1818181818182 218.1818181818182 0 0 0 529.3306443714026 231.56931759398793  L 506.5320792783462 244.62617893371188 A 191.9090909090909 191.9090909090909 0 0 1 531.907921733236 339.33011226022387 Z"></path><path class="clr-fill-yellow-080" d="M 585.4530500614576 339.143203743536 A 245.45454545454547 245.45454545454547 0 0 0 552.9969749178279 218.0154822932364  L 530.1984098247715 231.07234363296038 A 219.1818181818182 219.1818181818182 0 0 1 559.1804828511757 339.2349126761723 Z"></path><path class="clr-fill-yellow-090" d="M 612.7256111793974 339.04800415948444 A 272.72727272727275 272.72727272727275 0 0 0 576.6633054642532 204.4616469924849  L 553.8647403711968 217.51850833220885 A 246.45454545454547 246.45454545454547 0 0 1 586.4530439691155 339.13971309212076 Z"></path><path class="clr-fill-yellow-100" d="M 639.9981722973371 338.9528045754329 A 300 300 0 0 0 600.3296360106785 190.9078116917334  L 577.5310709176222 203.96467303145735 A 273.72727272727275 273.72727272727275 0 0 1 613.7256050870552 339.0445135080692 Z"></path><path class="clr-fill-lime-010" d="M 387.3326610928506 367.107670601503 A 54.54545454545455 54.54545454545455 0 0 0 394.5451222358795 340.1903991681031  L 368.2725550255975 340.0986902354668 A 28.272727272727273 28.272727272727273 0 0 1 364.53409599979426 354.0508092617791 Z"></path><path class="clr-fill-lime-020" d="M 410.99899163927597 380.66150590225453 A 81.81818181818181 81.81818181818181 0 0 0 421.81768335381923 340.28559875215467  L 395.54511614353726 340.19388981951835 A 55.54545454545455 55.54545454545455 0 0 1 388.20042654621955 367.60464456253055 Z"></path><path class="clr-fill-lime-030" d="M 434.6653221857013 394.215341203006 A 109.0909090909091 109.0909090909091 0 0 0 449.090244471759 340.3807983362062  L 422.817677261477 340.2890894035699 A 82.81818181818181 82.81818181818181 0 0 1 411.8667570926449 381.1584798632821 Z"></path><path class="clr-fill-lime-040" d="M 458.3316527321266 407.76917650375754 A 136.36363636363637 136.36363636363637 0 0 0 476.3628055896987 340.4759979202578  L 450.09023837941675 340.38428898762146 A 110.0909090909091 110.0909090909091 0 0 1 435.53308763907023 394.7123151640336 Z"></path><path class="clr-fill-lime-050" d="M 481.99798327855194 421.32301180450906 A 163.63636363636363 163.63636363636363 0 0 0 503.6353667076384 340.57119750430934  L 477.3627994973565 340.479488571673 A 137.36363636363637 137.36363636363637 0 0 1 459.1994181854956 408.2661504647851 Z"></path><path class="clr-fill-lime-060" d="M 505.6643138249773 434.87684710526054 A 190.9090909090909 190.9090909090909 0 0 0 530.9079278255781 340.6663970883609  L 504.63536061529624 340.5746881557246 A 164.63636363636363 164.63636363636363 0 0 1 482.86574873192086 421.8199857655366 Z"></path><path class="clr-fill-lime-070" d="M 529.3306443714026 448.43068240601207 A 218.1818181818182 218.1818181818182 0 0 0 558.180488943518 340.76159667241245  L 531.907921733236 340.66988773977613 A 191.9090909090909 191.9090909090909 0 0 1 506.5320792783462 435.3738210662881 Z"></path><path class="clr-fill-lime-080" d="M 552.9969749178279 461.9845177067636 A 245.45454545454547 245.45454545454547 0 0 0 585.4530500614576 340.856796256464  L 559.1804828511757 340.7650873238277 A 219.1818181818182 219.1818181818182 0 0 1 530.1984098247715 448.9276563670396 Z"></path><path class="clr-fill-lime-090" d="M 576.6633054642532 475.53835300751507 A 272.72727272727275 272.72727272727275 0 0 0 612.7256111793974 340.95199584051556  L 586.4530439691155 340.86028690787924 A 246.45454545454547 246.45454545454547 0 0 1 553.8647403711968 462.48149166779115 Z"></path><path class="clr-fill-lime-100" d="M 600.3296360106785 489.0921883082666 A 300 300 0 0 0 639.9981722973371 341.0471954245671  L 613.7256050870552 340.9554864919308 A 273.72727272727275 273.72727272727275 0 0 1 577.5310709176222 476.0353269685427 Z"></path><path class="clr-fill-green-010" d="M 367.43745163437643 387.1422619247475 A 54.54545454545455 54.54545454545455 0 0 0 387.1422619247475 367.43745163437643  L 364.43540576432747 354.2217457638185 A 28.272727272727273 28.272727272727273 0 0 1 354.2217457638185 364.43540576432747 Z"></path><path class="clr-fill-green-020" d="M 381.1561774515647 410.7133928871213 A 81.81818181818181 81.81818181818181 0 0 0 410.7133928871213 381.1561774515647  L 388.00653672670126 367.9404715810067 A 55.54545454545455 55.54545454545455 0 0 1 367.9404715810067 388.00653672670126 Z"></path><path class="clr-fill-green-030" d="M 394.8749032687529 434.2845238494951 A 109.0909090909091 109.0909090909091 0 0 0 434.28452384949503 394.8749032687529  L 411.577667689075 381.6591973981949 A 82.81818181818181 82.81818181818181 0 0 1 381.6591973981949 411.577667689075 Z"></path><path class="clr-fill-green-040" d="M 408.59362908594113 457.8556548118688 A 136.36363636363637 136.36363636363637 0 0 0 457.8556548118688 408.59362908594113  L 435.1487986514488 395.37792321538313 A 110.0909090909091 110.0909090909091 0 0 1 395.37792321538313 435.1487986514488 Z"></path><path class="clr-fill-green-050" d="M 422.31235490312935 481.4267857742426 A 163.63636363636363 163.63636363636363 0 0 0 481.4267857742426 422.3123549031294  L 458.7199296138225 409.0966490325714 A 137.36363636363637 137.36363636363637 0 0 1 409.09664903257135 458.71992961382256 Z"></path><path class="clr-fill-green-060" d="M 436.0310807203176 504.9979167366164 A 190.9090909090909 190.9090909090909 0 0 0 504.99791673661633 436.0310807203176  L 482.2910605761963 422.8153748497596 A 164.63636363636363 164.63636363636363 0 0 1 422.81537484975956 482.2910605761963 Z"></path><path class="clr-fill-green-070" d="M 449.74980653750583 528.5690476989902 A 218.1818181818182 218.1818181818182 0 0 0 528.5690476989901 449.74980653750583  L 505.8621915385701 436.53410066694784 A 191.9090909090909 191.9090909090909 0 0 1 436.53410066694784 505.8621915385701 Z"></path><path class="clr-fill-green-080" d="M 463.46853235469405 552.140178661364 A 245.45454545454547 245.45454545454547 0 0 0 552.1401786613638 463.46853235469405  L 529.4333225009439 450.2528264841361 A 219.1818181818182 219.1818181818182 0 0 1 450.25282648413605 529.4333225009439 Z"></path><path class="clr-fill-green-090" d="M 477.18725817188226 575.7113096237376 A 272.72727272727275 272.72727272727275 0 0 0 575.7113096237376 477.18725817188226  L 553.0044534633175 463.9715523013243 A 246.45454545454547 246.45454545454547 0 0 1 463.97155230132427 553.0044534633176 Z"></path><path class="clr-fill-green-100" d="M 490.9059839890705 599.2824405861114 A 300 300 0 0 0 599.2824405861114 490.90598398907053  L 576.5755844256913 477.69027811851254 A 273.72727272727275 273.72727272727275 0 0 1 477.69027811851254 576.5755844256914 Z"></path><path class="clr-fill-teal-010" d="M 340.1903991681031 394.5451222358795 A 54.54545454545455 54.54545454545455 0 0 0 367.10767060150306 387.3326610928506  L 354.0508092617791 364.53409599979426 A 28.272727272727273 28.272727272727273 0 0 1 340.0986902354668 368.2725550255975 Z"></path><path class="clr-fill-teal-020" d="M 340.28559875215467 421.81768335381923 A 81.81818181818181 81.81818181818181 0 0 0 380.66150590225453 410.9989916392759  L 367.6046445625306 388.20042654621955 A 55.54545454545455 55.54545454545455 0 0 1 340.19388981951835 395.54511614353726 Z"></path><path class="clr-fill-teal-030" d="M 340.3807983362062 449.090244471759 A 109.0909090909091 109.0909090909091 0 0 0 394.21534120300606 434.66532218570126  L 381.1584798632821 411.8667570926449 A 82.81818181818181 82.81818181818181 0 0 1 340.2890894035699 422.817677261477 Z"></path><path class="clr-fill-teal-040" d="M 340.4759979202578 476.3628055896987 A 136.36363636363637 136.36363636363637 0 0 0 407.7691765037576 458.3316527321266  L 394.7123151640336 435.53308763907023 A 110.0909090909091 110.0909090909091 0 0 1 340.38428898762146 450.09023837941675 Z"></path><path class="clr-fill-teal-050" d="M 340.57119750430934 503.6353667076384 A 163.63636363636363 163.63636363636363 0 0 0 421.32301180450906 481.9979832785519  L 408.26615046478514 459.1994181854955 A 137.36363636363637 137.36363636363637 0 0 1 340.47948857167296 477.3627994973565 Z"></path><path class="clr-fill-teal-060" d="M 340.66639708836084 530.9079278255781 A 190.9090909090909 190.9090909090909 0 0 0 434.8768471052606 505.6643138249772  L 421.81998576553667 482.8657487319208 A 164.63636363636363 164.63636363636363 0 0 1 340.5746881557245 504.63536061529624 Z"></path><path class="clr-fill-teal-070" d="M 340.7615966724124 558.180488943518 A 218.1818181818182 218.1818181818182 0 0 0 448.4306824060121 529.3306443714025  L 435.3738210662882 506.53207927834615 A 191.9090909090909 191.9090909090909 0 0 1 340.6698877397761 531.907921733236 Z"></path><path class="clr-fill-teal-080" d="M 340.85679625646395 585.4530500614576 A 245.45454545454547 245.45454545454547 0 0 0 461.98451770676365 552.9969749178279  L 448.92765636703973 530.1984098247715 A 219.1818181818182 219.1818181818182 0 0 1 340.76508732382763 559.1804828511757 Z"></path><path class="clr-fill-teal-090" d="M 340.9519958405155 612.7256111793974 A 272.72727272727275 272.72727272727275 0 0 0 475.5383530075152 576.6633054642532  L 462.4814916677912 553.8647403711968 A 246.45454545454547 246.45454545454547 0 0 1 340.8602869078792 586.4530439691155 Z"></path><path class="clr-fill-teal-100" d="M 341.04719542456706 639.9981722973371 A 300 300 0 0 0 489.0921883082667 600.3296360106785  L 476.03532696854273 577.5310709176222 A 273.72727272727275 273.72727272727275 0 0 1 340.95548649193074 613.7256050870552 Z"></path><path class="clr-fill-turquoise-010" d="M 312.89232939849694 387.3326610928506 A 54.54545454545455 54.54545454545455 0 0 0 339.8096008318969 394.5451222358795  L 339.9013097645332 368.2725550255975 A 28.272727272727273 28.272727272727273 0 0 1 325.9491907382209 364.53409599979426 Z"></path><path class="clr-fill-turquoise-020" d="M 299.33849409774547 410.9989916392759 A 81.81818181818181 81.81818181818181 0 0 0 339.71440124784533 421.81768335381923  L 339.80611018048165 395.54511614353726 A 55.54545454545455 55.54545454545455 0 0 1 312.3953554374694 388.20042654621955 Z"></path><path class="clr-fill-turquoise-030" d="M 285.78465879699394 434.66532218570126 A 109.0909090909091 109.0909090909091 0 0 0 339.6192016637938 449.090244471759  L 339.7109105964301 422.817677261477 A 82.81818181818181 82.81818181818181 0 0 1 298.8415201367179 411.8667570926449 Z"></path><path class="clr-fill-turquoise-040" d="M 272.2308234962424 458.3316527321266 A 136.36363636363637 136.36363636363637 0 0 0 339.5240020797422 476.3628055896987  L 339.61571101237854 450.09023837941675 A 110.0909090909091 110.0909090909091 0 0 1 285.2876848359664 435.5330876390702 Z"></path><path class="clr-fill-turquoise-050" d="M 258.6769881954909 481.9979832785519 A 163.63636363636363 163.63636363636363 0 0 0 339.42880249569066 503.6353667076384  L 339.520511428327 477.3627994973565 A 137.36363636363637 137.36363636363637 0 0 1 271.73384953521486 459.1994181854955 Z"></path><path class="clr-fill-turquoise-060" d="M 245.12315289473935 505.66431382497717 A 190.9090909090909 190.9090909090909 0 0 0 339.3336029116391 530.9079278255781  L 339.4253118442754 504.63536061529624 A 164.63636363636363 164.63636363636363 0 0 1 258.18001423446333 482.8657487319208 Z"></path><path class="clr-fill-turquoise-070" d="M 231.56931759398785 529.3306443714025 A 218.1818181818182 218.1818181818182 0 0 0 339.23840332758755 558.180488943518  L 339.33011226022387 531.907921733236 A 191.9090909090909 191.9090909090909 0 0 1 244.6261789337118 506.53207927834615 Z"></path><path class="clr-fill-turquoise-080" d="M 218.01548229323632 552.9969749178279 A 245.45454545454547 245.45454545454547 0 0 0 339.143203743536 585.4530500614576  L 339.2349126761723 559.1804828511757 A 219.1818181818182 219.1818181818182 0 0 1 231.07234363296027 530.1984098247715 Z"></path><path class="clr-fill-turquoise-090" d="M 204.4616469924848 576.6633054642532 A 272.72727272727275 272.72727272727275 0 0 0 339.04800415948444 612.7256111793974  L 339.13971309212076 586.4530439691155 A 246.45454545454547 246.45454545454547 0 0 1 217.51850833220877 553.8647403711968 Z"></path><path class="clr-fill-turquoise-100" d="M 190.9078116917333 600.3296360106784 A 300 300 0 0 0 338.9528045754329 639.9981722973371  L 339.0445135080692 613.7256050870552 A 273.72727272727275 273.72727272727275 0 0 1 203.96467303145724 577.5310709176221 Z"></path><path class="clr-fill-aqua-010" d="M 292.8577380752525 367.4374516343765 A 54.54545454545455 54.54545454545455 0 0 0 312.56254836562357 387.1422619247475  L 325.77825423618157 364.43540576432747 A 28.272727272727273 28.272727272727273 0 0 1 315.56459423567253 354.2217457638185 Z"></path><path class="clr-fill-aqua-020" d="M 269.2866071128787 381.1561774515647 A 81.81818181818181 81.81818181818181 0 0 0 298.84382254843536 410.7133928871213  L 312.05952841899335 388.00653672670126 A 55.54545454545455 55.54545454545455 0 0 1 291.99346327329874 367.9404715810067 Z"></path><path class="clr-fill-aqua-030" d="M 245.71547615050494 394.8749032687529 A 109.0909090909091 109.0909090909091 0 0 0 285.12509673124714 434.2845238494951  L 298.34080260180514 411.57766768907504 A 82.81818181818181 82.81818181818181 0 0 1 268.422332310925 381.6591973981949 Z"></path><path class="clr-fill-aqua-040" d="M 222.14434518813118 408.5936290859412 A 136.36363636363637 136.36363636363637 0 0 0 271.4063709140589 457.8556548118689  L 284.62207678461687 435.1487986514488 A 110.0909090909091 110.0909090909091 0 0 1 244.85120134855123 395.3779232153832 Z"></path><path class="clr-fill-aqua-050" d="M 198.57321422575743 422.3123549031294 A 163.63636363636363 163.63636363636363 0 0 0 257.6876450968707 481.4267857742426  L 270.90335096742865 458.71992961382256 A 137.36363636363637 137.36363636363637 0 0 1 221.28007038617747 409.0966490325714 Z"></path><path class="clr-fill-aqua-060" d="M 175.00208326338367 436.0310807203176 A 190.9090909090909 190.9090909090909 0 0 0 243.9689192796825 504.9979167366164  L 257.18462515024044 482.2910605761963 A 164.63636363636363 164.63636363636363 0 0 1 197.7089394238037 422.8153748497596 Z"></path><path class="clr-fill-aqua-070" d="M 151.43095230100988 449.74980653750583 A 218.1818181818182 218.1818181818182 0 0 0 230.25019346249425 528.5690476989902  L 243.46589933305225 505.8621915385701 A 191.9090909090909 191.9090909090909 0 0 1 174.13780846142996 436.5341006669479 Z"></path><path class="clr-fill-aqua-080" d="M 127.85982133863612 463.4685323546941 A 245.45454545454547 245.45454545454547 0 0 0 216.53146764530604 552.140178661364  L 229.747173515864 529.4333225009439 A 219.1818181818182 219.1818181818182 0 0 1 150.5666774990562 450.2528264841361 Z"></path><path class="clr-fill-aqua-090" d="M 104.28869037626234 477.1872581718824 A 272.72727272727275 272.72727272727275 0 0 0 202.81274182811782 575.7113096237377  L 216.0284476986758 553.0044534633176 A 246.45454545454547 246.45454545454547 0 0 1 126.99554653668241 463.9715523013243 Z"></path><path class="clr-fill-aqua-100" d="M 80.71755941388858 490.9059839890706 A 300 300 0 0 0 189.0940160109296 599.2824405861115  L 202.30972188148758 576.5755844256914 A 273.72727272727275 273.72727272727275 0 0 1 103.42441557430865 477.69027811851254 Z"></path><path class="clr-fill-blue-010" d="M 285.4548777641205 340.1903991681031 A 54.54545454545455 54.54545454545455 0 0 0 292.6673389071494 367.107670601503  L 315.46590400020574 354.0508092617791 A 28.272727272727273 28.272727272727273 0 0 1 311.7274449744025 340.0986902354668 Z"></path><path class="clr-fill-blue-020" d="M 258.18231664618077 340.28559875215467 A 81.81818181818181 81.81818181818181 0 0 0 269.0010083607241 380.66150590225453  L 291.79957345378045 367.60464456253055 A 55.54545454545455 55.54545454545455 0 0 1 284.45488385646274 340.19388981951835 Z"></path><path class="clr-fill-blue-030" d="M 230.90975552824105 340.3807983362062 A 109.0909090909091 109.0909090909091 0 0 0 245.33467781429874 394.21534120300606  L 268.1332429073551 381.1584798632821 A 82.81818181818181 82.81818181818181 0 0 1 257.182322738523 340.2890894035699 Z"></path><path class="clr-fill-blue-040" d="M 203.6371944103013 340.4759979202578 A 136.36363636363637 136.36363636363637 0 0 0 221.6683472678734 407.76917650375754  L 244.4669123609298 394.7123151640336 A 110.0909090909091 110.0909090909091 0 0 1 229.90976162058325 340.38428898762146 Z"></path><path class="clr-fill-blue-050" d="M 176.3646332923616 340.57119750430934 A 163.63636363636363 163.63636363636363 0 0 0 198.00201672144811 421.32301180450906  L 220.80058181450448 408.26615046478514 A 137.36363636363637 137.36363636363637 0 0 1 202.6372005026435 340.479488571673 Z"></path><path class="clr-fill-blue-060" d="M 149.09207217442184 340.6663970883609 A 190.9090909090909 190.9090909090909 0 0 0 174.33568617502277 434.8768471052606  L 197.13425126807917 421.8199857655366 A 164.63636363636363 164.63636363636363 0 0 1 175.3646393847038 340.5746881557246 Z"></path><path class="clr-fill-blue-070" d="M 121.8195110564821 340.76159667241245 A 218.1818181818182 218.1818181818182 0 0 0 150.66935562859746 448.4306824060121  L 173.46792072165385 435.37382106628814 A 191.9090909090909 191.9090909090909 0 0 1 148.09207826676405 340.6698877397761 Z"></path><path class="clr-fill-blue-080" d="M 94.54694993854235 340.856796256464 A 245.45454545454547 245.45454545454547 0 0 0 127.00302508217214 461.98451770676365  L 149.80159017522854 448.9276563670397 A 219.1818181818182 219.1818181818182 0 0 1 120.8195171488243 340.76508732382763 Z"></path><path class="clr-fill-blue-090" d="M 67.27438882060261 340.95199584051556 A 272.72727272727275 272.72727272727275 0 0 0 103.3366945357468 475.5383530075151  L 126.1352596288032 462.48149166779115 A 246.45454545454547 246.45454545454547 0 0 1 93.54695603088456 340.8602869078792 Z"></path><path class="clr-fill-blue-100" d="M 40.001827702662865 341.04719542456706 A 300 300 0 0 0 79.67036398932152 489.09218830826666  L 102.46892908237788 476.0353269685427 A 273.72727272727275 273.72727272727275 0 0 1 66.27439491294479 340.95548649193074 Z"></path><path class="clr-fill-ultramarine-010" d="M 292.6673389071494 312.89232939849694 A 54.54545454545455 54.54545454545455 0 0 0 285.4548777641205 339.8096008318969  L 311.7274449744025 339.9013097645332 A 28.272727272727273 28.272727272727273 0 0 1 315.46590400020574 325.9491907382209 Z"></path><path class="clr-fill-ultramarine-020" d="M 269.0010083607241 299.33849409774547 A 81.81818181818181 81.81818181818181 0 0 0 258.18231664618077 339.71440124784533  L 284.45488385646274 339.8061101804817 A 55.54545454545455 55.54545454545455 0 0 1 291.79957345378045 312.3953554374694 Z"></path><path class="clr-fill-ultramarine-030" d="M 245.33467781429874 285.78465879699394 A 109.0909090909091 109.0909090909091 0 0 0 230.90975552824105 339.61920166379383  L 257.182322738523 339.71091059643015 A 82.81818181818181 82.81818181818181 0 0 1 268.1332429073551 298.8415201367179 Z"></path><path class="clr-fill-ultramarine-040" d="M 221.6683472678734 272.2308234962424 A 136.36363636363637 136.36363636363637 0 0 0 203.6371944103013 339.5240020797423  L 229.90976162058325 339.6157110123786 A 110.0909090909091 110.0909090909091 0 0 1 244.4669123609298 285.2876848359664 Z"></path><path class="clr-fill-ultramarine-050" d="M 198.00201672144811 258.67698819549094 A 163.63636363636363 163.63636363636363 0 0 0 176.3646332923616 339.4288024956907  L 202.6372005026435 339.52051142832704 A 137.36363636363637 137.36363636363637 0 0 1 220.80058181450448 271.73384953521486 Z"></path><path class="clr-fill-ultramarine-060" d="M 174.33568617502277 245.12315289473938 A 190.9090909090909 190.9090909090909 0 0 0 149.09207217442184 339.33360291163916  L 175.3646393847038 339.4253118442755 A 164.63636363636363 164.63636363636363 0 0 1 197.13425126807917 258.18001423446333 Z"></path><path class="clr-fill-ultramarine-070" d="M 150.66935562859746 231.56931759398788 A 218.1818181818182 218.1818181818182 0 0 0 121.8195110564821 339.2384033275876  L 148.09207826676405 339.3301122602239 A 191.9090909090909 191.9090909090909 0 0 1 173.46792072165385 244.62617893371183 Z"></path><path class="clr-fill-ultramarine-080" d="M 127.00302508217214 218.01548229323635 A 245.45454545454547 245.45454545454547 0 0 0 94.54694993854235 339.14320374353605  L 120.8195171488243 339.2349126761724 A 219.1818181818182 219.1818181818182 0 0 1 149.80159017522854 231.0723436329603 Z"></path><path class="clr-fill-ultramarine-090" d="M 103.3366945357468 204.46164699248482 A 272.72727272727275 272.72727272727275 0 0 0 67.27438882060261 339.04800415948455  L 93.54695603088456 339.13971309212087 A 246.45454545454547 246.45454545454547 0 0 1 126.1352596288032 217.5185083322088 Z"></path><path class="clr-fill-ultramarine-100" d="M 79.67036398932152 190.90781169173331 A 300 300 0 0 0 40.001827702662865 338.952804575433  L 66.27439491294479 339.0445135080693 A 273.72727272727275 273.72727272727275 0 0 1 102.46892908237788 203.96467303145727 Z"></path><path class="clr-fill-purple-010" d="M 312.56254836562357 292.8577380752524 A 54.54545454545455 54.54545454545455 0 0 0 292.8577380752525 312.56254836562357  L 315.56459423567253 325.7782542361815 A 28.272727272727273 28.272727272727273 0 0 1 325.77825423618157 315.56459423567253 Z"></path><path class="clr-fill-purple-020" d="M 298.84382254843536 269.2866071128787 A 81.81818181818181 81.81818181818181 0 0 0 269.2866071128787 298.8438225484353  L 291.99346327329874 312.0595284189933 A 55.54545454545455 55.54545454545455 0 0 1 312.05952841899335 291.99346327329874 Z"></path><path class="clr-fill-purple-030" d="M 285.12509673124714 245.7154761505049 A 109.0909090909091 109.0909090909091 0 0 0 245.7154761505049 285.1250967312471  L 268.422332310925 298.3408026018051 A 82.81818181818181 82.81818181818181 0 0 1 298.34080260180514 268.42233231092496 Z"></path><path class="clr-fill-purple-040" d="M 271.4063709140589 222.14434518813113 A 136.36363636363637 136.36363636363637 0 0 0 222.14434518813115 271.40637091405887  L 244.85120134855123 284.62207678461687 A 110.0909090909091 110.0909090909091 0 0 1 284.6220767846169 244.8512013485512 Z"></path><path class="clr-fill-purple-050" d="M 257.6876450968707 198.57321422575737 A 163.63636363636363 163.63636363636363 0 0 0 198.57321422575743 257.68764509687065  L 221.28007038617744 270.90335096742865 A 137.36363636363637 137.36363636363637 0 0 1 270.9033509674287 221.28007038617744 Z"></path><path class="clr-fill-purple-060" d="M 243.9689192796825 175.00208326338358 A 190.9090909090909 190.9090909090909 0 0 0 175.00208326338364 243.9689192796824  L 197.7089394238037 257.18462515024044 A 164.63636363636363 164.63636363636363 0 0 1 257.1846251502405 197.70893942380366 Z"></path><path class="clr-fill-purple-070" d="M 230.25019346249428 151.43095230100982 A 218.1818181818182 218.1818181818182 0 0 0 151.43095230100985 230.25019346249417  L 174.13780846142993 243.46589933305216 A 191.9090909090909 191.9090909090909 0 0 1 243.46589933305228 174.1378084614299 Z"></path><path class="clr-fill-purple-080" d="M 216.53146764530607 127.85982133863604 A 245.45454545454547 245.45454545454547 0 0 0 127.8598213386361 216.53146764530595  L 150.56667749905617 229.74717351586395 A 219.1818181818182 219.1818181818182 0 0 1 229.74717351586406 150.5666774990561 Z"></path><path class="clr-fill-purple-090" d="M 202.81274182811785 104.28869037626225 A 272.72727272727275 272.72727272727275 0 0 0 104.28869037626231 202.81274182811774  L 126.99554653668238 216.02844769867573 A 246.45454545454547 246.45454545454547 0 0 1 216.02844769867585 126.99554653668233 Z"></path><path class="clr-fill-purple-100" d="M 189.09401601092964 80.71755941388852 A 300 300 0 0 0 80.71755941388858 189.09401601092952  L 103.42441557430863 202.3097218814875 A 273.72727272727275 273.72727272727275 0 0 1 202.3097218814876 103.42441557430854 Z"></path><path class="clr-fill-pink-010" d="M 339.8096008318969 285.4548777641205 A 54.54545454545455 54.54545454545455 0 0 0 312.89232939849694 292.6673389071494  L 325.9491907382209 315.46590400020574 A 28.272727272727273 28.272727272727273 0 0 1 339.9013097645332 311.7274449744025 Z"></path><path class="clr-fill-pink-020" d="M 339.71440124784533 258.18231664618077 A 81.81818181818181 81.81818181818181 0 0 0 299.3384940977454 269.0010083607241  L 312.3953554374694 291.79957345378045 A 55.54545454545455 55.54545454545455 0 0 1 339.80611018048165 284.45488385646274 Z"></path><path class="clr-fill-pink-030" d="M 339.6192016637938 230.90975552824105 A 109.0909090909091 109.0909090909091 0 0 0 285.7846587969939 245.33467781429874  L 298.84152013671786 268.1332429073551 A 82.81818181818181 82.81818181818181 0 0 1 339.7109105964301 257.182322738523 Z"></path><path class="clr-fill-pink-040" d="M 339.5240020797422 203.6371944103013 A 136.36363636363637 136.36363636363637 0 0 0 272.23082349624235 221.66834726787343  L 285.28768483596633 244.46691236092983 A 110.0909090909091 110.0909090909091 0 0 1 339.61571101237854 229.90976162058325 Z"></path><path class="clr-fill-pink-050" d="M 339.42880249569066 176.3646332923616 A 163.63636363636363 163.63636363636363 0 0 0 258.6769881954908 198.00201672144814  L 271.7338495352148 220.8005818145045 A 137.36363636363637 137.36363636363637 0 0 1 339.520511428327 202.6372005026435 Z"></path><path class="clr-fill-pink-060" d="M 339.3336029116391 149.09207217442184 A 190.9090909090909 190.9090909090909 0 0 0 245.12315289473932 174.33568617502283  L 258.18001423446333 197.13425126807923 A 164.63636363636363 164.63636363636363 0 0 1 339.4253118442754 175.3646393847038 Z"></path><path class="clr-fill-pink-070" d="M 339.23840332758755 121.8195110564821 A 218.1818181818182 218.1818181818182 0 0 0 231.5693175939878 150.66935562859751  L 244.62617893371177 173.46792072165388 A 191.9090909090909 191.9090909090909 0 0 1 339.33011226022387 148.09207826676405 Z"></path><path class="clr-fill-pink-080" d="M 339.143203743536 94.54694993854235 A 245.45454545454547 245.45454545454547 0 0 0 218.01548229323626 127.0030250821722  L 231.07234363296024 149.80159017522857 A 219.1818181818182 219.1818181818182 0 0 1 339.2349126761723 120.8195171488243 Z"></path><path class="clr-fill-pink-090" d="M 339.04800415948444 67.27438882060261 A 272.72727272727275 272.72727272727275 0 0 0 204.46164699248473 103.33669453574686  L 217.5185083322087 126.13525962880325 A 246.45454545454547 246.45454545454547 0 0 1 339.13971309212076 93.54695603088456 Z"></path><path class="clr-fill-pink-100" d="M 338.9528045754329 40.001827702662865 A 300 300 0 0 0 190.90781169173323 79.67036398932157  L 203.96467303145718 102.46892908237794 A 273.72727272727275 273.72727272727275 0 0 1 339.0445135080692 66.27439491294479 Z" style="stroke:1px black"></path>
<circle id="center-circle" cx="340" cy="340" r="28" class="clr-fill-white-000"/>

<text class="color-wheel-text" text-anchor="middle" transform="translate(420.2339039817814 40.56299385038881) rotate(15)">Red</text>
<text class="color-wheel-text" text-anchor="middle" transform="translate(559.2031021678297 120.79689783217029) rotate(45)">Orange</text>
<text class="color-wheel-text" text-anchor="middle" transform="translate(639.4370061496112 259.7660960182186) rotate(75)">Yellow</text>
<text class="color-wheel-text" text-anchor="middle" transform="translate(639.4370061496112 420.2339039817814) rotate(105)">Lime</text>
<text class="color-wheel-text" text-anchor="middle" transform="translate(559.2031021678297 559.2031021678297) rotate(135)">Green</text>
<text class="color-wheel-text" text-anchor="middle" transform="translate(420.2339039817814 639.4370061496112) rotate(165)">Teal</text>
<text class="color-wheel-text" text-anchor="middle" transform="translate(259.76609601821855 639.4370061496112) rotate(195)">Turquoise</text>
<text class="color-wheel-text" text-anchor="middle" transform="translate(120.79689783217029 559.2031021678297) rotate(225)">Aqua</text>
<text class="color-wheel-text" text-anchor="middle" transform="translate(40.562993850388864 420.2339039817815) rotate(255)">Blue</text>
<text class="color-wheel-text" text-anchor="middle" transform="translate(40.56299385038881 259.7660960182187) rotate(285)">Ultramarine</text>
<text class="color-wheel-text" text-anchor="middle" transform="translate(120.79689783217023 120.79689783217029) rotate(315)">Purple</text>
<text class="color-wheel-text" text-anchor="middle" transform="translate(259.7660960182186 40.56299385038881) rotate(345)">Pink</text>
<text class="color-wheel-hue-value" text-anchor="middle" transform="translate(340 30) rotate(0)">Hue: 0</text>
<text class="color-wheel-hue-value" text-anchor="middle" transform="translate(495 71.53212482682403) rotate(30)">30</text>
<text class="color-wheel-hue-value" text-anchor="middle" transform="translate(608.467875173176 185.00000000000003) rotate(60)">60</text>
<text class="color-wheel-hue-value" text-anchor="middle" transform="translate(650 340) rotate(90)">90</text>
<text class="color-wheel-hue-value" text-anchor="middle" transform="translate(608.467875173176 495) rotate(120)">120</text>
<text class="color-wheel-hue-value" text-anchor="middle" transform="translate(495 608.467875173176) rotate(150)">150</text>
<text class="color-wheel-hue-value" text-anchor="middle" transform="translate(340 650) rotate(180)">180</text>
<text class="color-wheel-hue-value" text-anchor="middle" transform="translate(185.00000000000006 608.467875173176) rotate(210)">210</text>
<text class="color-wheel-hue-value" text-anchor="middle" transform="translate(71.53212482682397 495) rotate(240)">240</text>
<text class="color-wheel-hue-value" text-anchor="middle" transform="translate(30 340.00000000000006) rotate(270)">270</text>
<text class="color-wheel-hue-value" text-anchor="middle" transform="translate(71.53212482682403 184.99999999999997) rotate(300)">300</text>
<text class="color-wheel-hue-value" text-anchor="middle" transform="translate(184.99999999999986 71.53212482682409) rotate(330)">330</text>
</g>
</g>

<rect  x="30" y="730" width="625" height="45" class="clr-fill-white-000" />
<g id="the-grays" >
<rect  x="45" y="740" width="49" height="25" class="clr-fill-gray-010"  />
<rect  x="95" y="740" width="49" height="25" class="clr-fill-gray-020" />
<rect  x="145" y="740" width="49" height="25" class="clr-fill-gray-030" />
<rect  x="195" y="740" width="49" height="25" class="clr-fill-gray-040" />
<rect  x="245" y="740" width="49" height="25" class="clr-fill-gray-050" />
<rect  x="295" y="740" width="49" height="25" class="clr-fill-gray-060" />
<rect  x="345" y="740" width="49" height="25" class="clr-fill-gray-070" />
<rect  x="395" y="740" width="49" height="25" class="clr-fill-gray-080" />
<rect  x="445" y="740" width="49" height="25" class="clr-fill-gray-090" />
<rect  x="495" y="740" width="49" height="25" class="clr-fill-gray-100" />
<rect  x="545" y="740" width="49" height="25" class="clr-fill-gray-110" />
<rect  x="595" y="740" width="49" height="25" class="clr-fill-black-100" />
</g>


<script type="text/javascript">
//<![CDATA[
var colorWheelLegendColorName="";
var colorWheelLegendRGBString="";
var colorWheelLegendHexString="";


function RGBStringToHexString(RGBString){
	r = parseInt(RGBString.slice(4,-1).split(",")[0]).toString(16);
	g = parseInt(RGBString.slice(4,-1).split(",")[1]).toString(16);
	b = parseInt(RGBString.slice(4,-1).split(",")[2]).toString(16);
	if (r.length == 1)    r = "0" + r;
	if (g.length == 1)    g = "0" + g;
	if (b.length == 1)    b = "0" + b;
	return "#" + r + g + b;
}



function updateColorWheelLegend(colorName, RGBString, HexString){
	colorNameArray = colorName.split("-");
	document.getElementById('color-name').textContent = colorNameArray[0];
	document.getElementById('color-block').style.fill = HexString;
  if (colorNameArray[1]) document.getElementById('color-name').textContent +=" "+colorNameArray[1];
	document.getElementById('color-RGB').textContent = RGBString;
	document.getElementById('color-hex').textContent = HexString;
	





	const ColorNumber = parseInt(colorNameArray[1]);
	PreferredTextColor = "Black";
	if ( ColorNumber > 50 ) PreferredTextColor = "White";

	WCAGRating = "AAA";
	if (( ColorNumber > 40 )&&( ColorNumber < 70) ) WCAGRating = "AA";

	var WCAGstring = PreferredTextColor +" text on this color achieves a WCAG Rating of " + WCAGRating ;
  if (RGBString=="")WCAGstring = "";
	document.getElementById('color-text-AAA').textContent =  WCAGstring;
	}















function colorLegendMouseOver() {
	updateColorWheelLegend(this.className.baseVal.substring(9).toUpperCase(), window.getComputedStyle(this).getPropertyValue('fill').toUpperCase(), RGBStringToHexString(window.getComputedStyle(this).getPropertyValue('fill')).toUpperCase());
}

function colorLegendClick() {
colorWheelLegendColorName = this.className.baseVal.substring(9).toUpperCase();
colorWheelLegendRGBString= window.getComputedStyle(this).getPropertyValue('fill').toUpperCase();
colorWheelLegendHexString = RGBStringToHexString(colorWheelLegendRGBString).toUpperCase();


updateColorWheelLegend(colorWheelLegendColorName, colorWheelLegendRGBString, colorWheelLegendHexString);

}


function colorLegendMouseOut() {
    //return legend to last clicked value
	updateColorWheelLegend(colorWheelLegendColorName, colorWheelLegendRGBString, colorWheelLegendHexString);
}

var theWheel = document.getElementById('wheel');
var pathsHTMLCollection = theWheel.getElementsByTagName('path');
for (var i=0; i< pathsHTMLCollection.length; i++) {
    pathsHTMLCollection[i].onmouseover = colorLegendMouseOver;
    pathsHTMLCollection[i].onmouseout = colorLegendMouseOut;
    pathsHTMLCollection[i].onclick = colorLegendClick;
}

centerCircle = document.getElementById('center-circle');
centerCircle.onmouseover = colorLegendMouseOver;
centerCircle.onmouseout = colorLegendMouseOut;
centerCircle.onclick = colorLegendClick;

var theGrays = document.getElementById('the-grays');
var rectHTMLCollection = theGrays.getElementsByTagName('rect');
for (var i=0; i< rectHTMLCollection.length; i++)
{
    rectHTMLCollection[i].onmouseover = colorLegendMouseOver;
    rectHTMLCollection[i].onmouseout = colorLegendMouseOut;
    rectHTMLCollection[i].onclick = colorLegendClick;
}


document.getElementById('hex-lookup').onclick = function(){
	var HexColorInput = window.prompt("Enter a Hex color value to search, e.g. #D91F11");

	if (HexColorInput === null) return false; // user probably hit cancel 

	HexColorInput = HexColorInput.trim();
	HexColorInput = HexColorInput.toUpperCase();

	//HexColorInput ="961574"
	//add # if not
	if(HexColorInput.indexOf("#") == -1) HexColorInput = "#" + HexColorInput;

	//run through all the CSS colors in this SVG stylesheet
	var noColorMatch = true;
	const object = document.getElementById('color-wheel-stylesheet').sheet.cssRules;
	for (const rule in object) {
	  if ((object[rule].selectorText !== undefined ) && (object[rule].selectorText.indexOf('.clr-fill-') !== -1)){
		hexString = RGBStringToHexString(object[rule].style.fill).toUpperCase();
		
		if(HexColorInput.localeCompare(hexString)==0){
			updateColorWheelLegend(object[rule].selectorText.substring(10).toUpperCase(), object[rule].style.fill.toUpperCase(), hexString)
			var wheelItem = document.getElementsByClassName(object[rule].selectorText.substring(1))[0].style.strokeWidth=2;
			noColorMatch = false;
			break;
		}
	  }
	}
	if (noColorMatch) alert("Apologies, " + HexColorInput +" was not found");
}



//]]>
</script>
</svg>

