<?xml version="1.0" encoding="utf-8"?>
<svg version="1.1" id="Layer_1" xmlns="http://www.w3.org/2000/svg" xmlns:xlink="http://www.w3.org/1999/xlink" x="0px" y="0px"
	 viewBox="0 0 100 51.8" style="enable-background:new 0 0 100 51.8;" xml:space="preserve">
<style type="text/css">
	.st0{fill:#82BBF9;}
	.st1{fill:#336699;}
	.st2{fill:url(#SVGID_1_);}
	.st3{font-family:'HelveticaNeue-Bold';}
	.st4{font-size:3.6053px;}
</style>
<rect class="st0" width="100" height="42.8"/>
<g>
	<ellipse class="st1" cx="38.7" cy="6" rx="2.8" ry="2.9"/>
	<ellipse class="st1" cx="60.7" cy="6" rx="2.8" ry="2.9"/>
	<ellipse class="st1" cx="49.6" cy="4.6" rx="3" ry="3"/>
	<circle class="st1" cx="49.9" cy="15.9" r="1.5"/>
	<circle class="st1" cx="41.7" cy="19.4" r="1.2"/>
	
		<linearGradient id="SVGID_1_" gradientUnits="userSpaceOnUse" x1="50" y1="83.2466" x2="50" y2="118.0176" gradientTransform="matrix(1 0 0 -1 0 126)">
		<stop  offset="0.3483" style="stop-color:#006194"/>
		<stop  offset="0.4916" style="stop-color:#16689A"/>
		<stop  offset="0.7879" style="stop-color:#4D7AA9"/>
		<stop  offset="0.8575" style="stop-color:#5B7FAD"/>
		<stop  offset="0.9195" style="stop-color:#3F6696"/>
		<stop  offset="1" style="stop-color:#1E497B"/>
	</linearGradient>
	<path class="st2" d="M66,9.3h-9.1l-0.5,1.6h-0.8L55.2,8H44.2l-0.4,2.8h-0.8l-0.5-1.6h-9.1L32,25.8l1.8,1.4l0.7-10.5h0.6l-0.5,26
		h2.6L39,26.3l1.7,16.5h2.6L43,26.3l1.2-0.9l1.4,0.8l-0.3,16.5h2.7l1.7-17.2l1.8,17.2h2.7l-0.3-16.6l1.3-0.7l1.4,0.8l-0.3,16.5H59
		l1.7-16.5l1.7,16.5H65l-0.5-26.1h0.6l1,10L68,25L66,9.3z M44.8,19.9l0.9,0.6l-0.5,1l-1.1-0.2c-0.2,0.2-0.4,0.4-0.6,0.6l0.2,1.1
		l-1,0.4l-0.6-0.9c-0.3,0.1-0.6,0.1-0.8,0l-0.6,0.9l-1-0.5l0.2-1c-0.3-0.2-0.5-0.4-0.6-0.6l-1,0.2l-0.4-1l0.8-0.6
		c-0.1-0.3-0.1-0.6,0-0.8l-0.8-0.6l0.5-1l1,0.2c0.2-0.2,0.4-0.5,0.6-0.6l-0.2-1l1-0.4l0.6,0.9c0.3-0.1,0.6,0,0.8,0l0.6-0.9l1,0.5
		l-0.2,1.1c0.2,0.2,0.4,0.4,0.6,0.6l1.1-0.2l0.4,1l-0.9,0.6C44.9,19.3,44.9,19.6,44.8,19.9z M53.2,19.9l-1.2-0.7
		c-0.3,0.2-0.6,0.3-1,0.5L50.7,21l-1.4,0L49,19.7c-0.3-0.1-0.7-0.2-1-0.4l-1.2,0.8l-1-1l0.6-1.2c-0.2-0.3-0.3-0.6-0.5-1l-1.3-0.3
		l-0.1-1.4l1.3-0.3c0.1-0.4,0.2-0.7,0.4-1l-0.7-1.1l1-1l1.2,0.6c0.3-0.2,0.6-0.3,1-0.5l0.3-1.4l1.4-0.1l0.3,1.3
		c0.3,0.1,0.7,0.2,1,0.4l1.2-0.8l1,1l-0.6,1.3c0.2,0.3,0.3,0.6,0.5,1L55,15l0.1,1.4l-1.4,0.4c-0.1,0.3-0.2,0.6-0.4,1l0.8,1.2
		L53.2,19.9z M61.3,19.6l0.9,0.6l-0.5,1L60.7,21c-0.2,0.2-0.4,0.4-0.6,0.6l0.2,1.1l-1,0.4l-0.6-0.9c-0.3,0.1-0.6,0.1-0.8,0l-0.6,0.9
		l-1-0.4l0.2-1c-0.3-0.2-0.5-0.4-0.6-0.6l-1,0.2l-0.4-1l0.8-0.6c-0.1-0.3-0.1-0.6,0-0.8l-0.8-0.6l0.5-1l1,0.2
		c0.2-0.2,0.4-0.5,0.6-0.6l-0.2-1.1l1-0.4l0.6,0.9c0.3-0.1,0.6,0,0.8,0l0.6-0.9l1,0.4l-0.2,1.1c0.2,0.2,0.4,0.4,0.6,0.6l1.1-0.2
		l0.4,1l-0.9,0.6C61.4,19,61.4,19.3,61.3,19.6z"/>
	<circle class="st1" cx="58.2" cy="19.2" r="1.2"/>
	<path class="st1" d="M48.1,5c-0.9,0.8-1.9,2.1-2.8,0.6S43.3,5.1,43,6.8c-0.3,1.8,0.2,1.2,1.2,0s1,0.8,1.9,0.3
		C47.1,6.8,48.1,5,48.1,5z"/>
</g>
</svg>
