<?xml version="1.0" encoding="utf-8"?>
<!-- Generator: Adobe Illustrator 21.0.2, SVG Export Plug-In . SVG Version: 6.00 Build 0)  -->
<svg version="1.1" id="Layer_1" xmlns="http://www.w3.org/2000/svg" xmlns:xlink="http://www.w3.org/1999/xlink" x="0px" y="0px"
	 viewBox="0 0 203.7 72.5" style="enable-background:new 0 0 203.7 72.5;" xml:space="preserve">
<style type="text/css">
	.st0{fill:#89A529;}
	.st1{fill:#4C7738;}
	.st2{font-family:'HelveticaNeue-Bold';}
	.st3{font-size:5px;}
</style>
<rect class="st0" width="203.7" height="72.5"/>
<title>Group 77</title>
<desc>Created with Sketch.</desc>
<text transform="matrix(1 0 0 1 2.1665 62.4999)" class="st1 st2 st3">Created by Oliviu Stoian</text>
<text transform="matrix(1 0 0 1 61.1666 62.4999)" class="st1 st2 st3">from the Noun Project</text>
<title>Group 77</title>
<desc>Created with Sketch.</desc>
<title>Group 77</title>
<desc>Created with Sketch.</desc>
<g transform="translate(600.000000, 1246.000000)">
	<path class="st1" d="M-573.8-1235.4l7,7l7-7v-27.6h-14V-1235.4z M-566.8-1226c-0.3,0-0.5-0.1-0.7-0.3l-8-8
		c-0.2-0.2-0.3-0.4-0.3-0.7v-29c0-0.6,0.4-1,1-1h16c0.6,0,1,0.4,1,1v29c0,0.3-0.1,0.5-0.3,0.7l-8,8
		C-566.3-1226.1-566.6-1226-566.8-1226L-566.8-1226z"/>
	<path class="st1" d="M-573.1-1214h3.2c0.3,0,0.6,0.1,0.8,0.4l2.2,2.9l2.2-2.9c0.2-0.3,0.5-0.4,0.8-0.4h3.2l-2.1-3.5
		c-0.2-0.3-0.2-0.7,0-1l2-3.5h-3.2c-0.3,0-0.6-0.1-0.8-0.4l-2.2-2.9l-2.2,2.9c-0.2,0.2-0.5,0.4-0.8,0.4h-3.1l2,3.5
		c0.2,0.3,0.2,0.7,0,1L-573.1-1214z M-566.8-1208c-0.3,0-0.6-0.1-0.8-0.4l-2.7-3.6h-4.5c-0.4,0-0.7-0.2-0.9-0.5s-0.2-0.7,0-1
		l2.7-4.5l-2.6-4.5c-0.2-0.3-0.2-0.7,0-1s0.5-0.5,0.9-0.5h4.4l2.7-3.5c0.4-0.5,1.2-0.5,1.6,0l2.7,3.5h4.4c0.4,0,0.7,0.2,0.9,0.5
		s0.2,0.7,0,1l-2.6,4.5l2.7,4.5c0.2,0.3,0.2,0.7,0,1s-0.5,0.5-0.9,0.5h-4.5l-2.7,3.6C-566.2-1208.1-566.5-1208-566.8-1208
		L-566.8-1208z"/>
	<path class="st1" d="M-586.8-1226c-4.4,0-8,3.6-8,8s3.6,8,8,8s8-3.6,8-8S-582.4-1226-586.8-1226 M-586.8-1208c-5.5,0-10-4.5-10-10
		s4.5-10,10-10s10,4.5,10,10C-576.8-1212.4-581.3-1208-586.8-1208"/>
	<path class="st1" d="M-592.8-1217c-0.6,0-1-0.4-1-1c0-3.9,3.1-7,7-7c0.6,0,1,0.4,1,1s-0.4,1-1,1c-2.8,0-5,2.2-5,5
		C-591.8-1217.4-592.3-1217-592.8-1217"/>
	<path class="st1" d="M-546.8-1214c-1.1,0-2,0.9-2,2s0.9,2,2,2s2-0.9,2-2S-545.7-1214-546.8-1214 M-546.8-1208c-2.2,0-4-1.8-4-4
		s1.8-4,4-4s4,1.8,4,4S-544.6-1208-546.8-1208"/>
	<path class="st1" d="M-543-1211l4.1,1.4v-4.7l-4.1,1.4c0.1,0.3,0.1,0.7,0.1,1S-542.9-1211.3-543-1211 M-537.8-1207.2
		c-0.1,0-0.2,0-0.3-0.1l-6.5-2.2c-0.3-0.1-0.5-0.3-0.6-0.6c-0.1-0.3-0.1-0.6,0.1-0.9c0.2-0.3,0.3-0.7,0.3-1.1s-0.1-0.7-0.3-1.1
		c-0.2-0.3-0.2-0.6-0.1-0.9c0.1-0.3,0.3-0.5,0.6-0.6l6.5-2.2c0.3-0.1,0.6-0.1,0.9,0.1c0.3,0.2,0.4,0.5,0.4,0.8v7.5
		c0,0.3-0.2,0.6-0.4,0.8C-537.4-1207.3-537.6-1207.2-537.8-1207.2"/>
	<path class="st1" d="M-549.2-1204h4.7l-1.4-4.1c-0.6,0.2-1.3,0.2-2,0L-549.2-1204z M-543.1-1202h-7.5c-0.3,0-0.6-0.2-0.8-0.4
		s-0.2-0.6-0.1-0.9l2.2-6.5c0.1-0.3,0.3-0.5,0.6-0.6s0.6-0.1,0.9,0.1c0.7,0.4,1.5,0.4,2.1,0c0.3-0.2,0.6-0.2,0.9-0.1
		c0.3,0.1,0.5,0.3,0.6,0.6l2.2,6.5c0.1,0.3,0,0.6-0.1,0.9C-542.5-1202.1-542.8-1202-543.1-1202L-543.1-1202z"/>
	<path class="st1" d="M-554.8-1214.3v4.7l4.1-1.4c-0.1-0.3-0.1-0.7-0.1-1s0-0.7,0.1-1L-554.8-1214.3z M-555.8-1207.2
		c-0.2,0-0.4-0.1-0.6-0.2c-0.3-0.2-0.4-0.5-0.4-0.8v-7.5c0-0.3,0.2-0.6,0.4-0.8c0.3-0.2,0.6-0.2,0.9-0.1l6.5,2.2
		c0.3,0.1,0.5,0.3,0.6,0.6c0.1,0.3,0.1,0.6-0.1,0.9c-0.2,0.3-0.3,0.7-0.3,1.1s0.1,0.7,0.3,1.1c0.2,0.3,0.2,0.6,0.1,0.9
		c-0.1,0.3-0.3,0.5-0.6,0.6l-6.5,2.2C-555.6-1207.2-555.7-1207.2-555.8-1207.2L-555.8-1207.2z"/>
	<path class="st1" d="M-546.8-1216c0.3,0,0.7,0,1,0.1l1.4-4.1h-4.7l1.4,4.1C-547.5-1215.9-547.2-1216-546.8-1216 M-545.2-1213.5
		c-0.2,0-0.4-0.1-0.5-0.2c-0.7-0.4-1.5-0.4-2.1,0c-0.3,0.2-0.6,0.2-0.9,0.1c-0.3-0.1-0.5-0.3-0.6-0.6l-2.2-6.5
		c-0.1-0.3,0-0.6,0.1-0.9c0.2-0.3,0.5-0.4,0.8-0.4h7.5c0.3,0,0.6,0.2,0.8,0.4c0.2,0.3,0.2,0.6,0.1,0.9l-2.2,6.5
		c-0.1,0.3-0.3,0.5-0.6,0.6C-545-1213.5-545.1-1213.5-545.2-1213.5"/>
	<path class="st1" d="M-567.8-1229.4l1,1l1-1v-33.6h-2V-1229.4z M-566.8-1226c-0.3,0-0.5-0.1-0.7-0.3l-2-2c-0.2-0.2-0.3-0.4-0.3-0.7
		v-35c0-0.6,0.4-1,1-1h4c0.6,0,1,0.4,1,1v35c0,0.3-0.1,0.5-0.3,0.7l-2,2C-566.3-1226.1-566.6-1226-566.8-1226L-566.8-1226z"/>
	<path class="st1" d="M-593.8-1235.4l7,7l7-7v-21.6h-14V-1235.4z M-586.8-1226c-0.3,0-0.5-0.1-0.7-0.3l-8-8
		c-0.2-0.2-0.3-0.4-0.3-0.7v-23c0-0.6,0.4-1,1-1h16c0.6,0,1,0.4,1,1v23c0,0.3-0.1,0.5-0.3,0.7l-8,8
		C-586.3-1226.1-586.6-1226-586.8-1226L-586.8-1226z"/>
	<path class="st1" d="M-587.8-1229.4l1,1l1-1v-27.6h-2V-1229.4z M-586.8-1226c-0.3,0-0.5-0.1-0.7-0.3l-2-2c-0.2-0.2-0.3-0.4-0.3-0.7
		v-29c0-0.6,0.4-1,1-1h4c0.6,0,1,0.4,1,1v29c0,0.3-0.1,0.5-0.3,0.7l-2,2C-586.3-1226.1-586.6-1226-586.8-1226L-586.8-1226z"/>
	<path class="st1" d="M-553.8-1229.4l7,7l7-7v-21.6h-14V-1229.4z M-546.8-1220c-0.3,0-0.5-0.1-0.7-0.3l-8-8
		c-0.2-0.2-0.3-0.4-0.3-0.7v-23c0-0.6,0.4-1,1-1h16c0.6,0,1,0.4,1,1v23c0,0.3-0.1,0.5-0.3,0.7l-8,8
		C-546.3-1220.1-546.6-1220-546.8-1220L-546.8-1220z"/>
	<path class="st1" d="M-547.8-1223.4l1,1l1-1v-27.6h-2V-1223.4z M-546.8-1220c-0.3,0-0.5-0.1-0.7-0.3l-2-2c-0.2-0.2-0.3-0.4-0.3-0.7
		v-29c0-0.6,0.4-1,1-1h4c0.6,0,1,0.4,1,1v29c0,0.3-0.1,0.5-0.3,0.7l-2,2C-546.3-1220.1-546.6-1220-546.8-1220L-546.8-1220z"/>
</g>
<g transform="translate(600.000000, 1246.000000)">
	<path class="st1" d="M-391.5-1235.4l7,7l7-7v-27.6h-14V-1235.4z M-384.5-1226c-0.3,0-0.5-0.1-0.7-0.3l-8-8
		c-0.2-0.2-0.3-0.4-0.3-0.7v-29c0-0.6,0.4-1,1-1h16c0.6,0,1,0.4,1,1v29c0,0.3-0.1,0.5-0.3,0.7l-8,8
		C-384-1226.1-384.3-1226-384.5-1226L-384.5-1226z"/>
	<path class="st1" d="M-390.8-1214h3.2c0.3,0,0.6,0.1,0.8,0.4l2.2,2.9l2.2-2.9c0.2-0.3,0.5-0.4,0.8-0.4h3.2l-2.1-3.5
		c-0.2-0.3-0.2-0.7,0-1l2-3.5h-3.2c-0.3,0-0.6-0.1-0.8-0.4l-2.2-2.9l-2.2,2.9c-0.2,0.2-0.5,0.4-0.8,0.4h-3.1l2,3.5
		c0.2,0.3,0.2,0.7,0,1L-390.8-1214z M-384.5-1208c-0.3,0-0.6-0.1-0.8-0.4l-2.7-3.6h-4.5c-0.4,0-0.7-0.2-0.9-0.5s-0.2-0.7,0-1
		l2.7-4.5l-2.6-4.5c-0.2-0.3-0.2-0.7,0-1s0.5-0.5,0.9-0.5h4.4l2.7-3.5c0.4-0.5,1.2-0.5,1.6,0l2.7,3.5h4.4c0.4,0,0.7,0.2,0.9,0.5
		s0.2,0.7,0,1l-2.6,4.5l2.7,4.5c0.2,0.3,0.2,0.7,0,1s-0.5,0.5-0.9,0.5h-4.5l-2.7,3.6C-383.9-1208.1-384.2-1208-384.5-1208
		L-384.5-1208z"/>
	<path class="st1" d="M-404.5-1226c-4.4,0-8,3.6-8,8s3.6,8,8,8s8-3.6,8-8S-400.1-1226-404.5-1226 M-404.5-1208c-5.5,0-10-4.5-10-10
		s4.5-10,10-10s10,4.5,10,10C-394.5-1212.4-399-1208-404.5-1208"/>
	<path class="st1" d="M-410.5-1217c-0.6,0-1-0.4-1-1c0-3.9,3.1-7,7-7c0.6,0,1,0.4,1,1s-0.4,1-1,1c-2.8,0-5,2.2-5,5
		C-409.5-1217.4-410-1217-410.5-1217"/>
	<path class="st1" d="M-364.5-1214c-1.1,0-2,0.9-2,2s0.9,2,2,2s2-0.9,2-2S-363.4-1214-364.5-1214 M-364.5-1208c-2.2,0-4-1.8-4-4
		s1.8-4,4-4s4,1.8,4,4S-362.3-1208-364.5-1208"/>
	<path class="st1" d="M-360.7-1211l4.1,1.4v-4.7l-4.1,1.4c0.1,0.3,0.1,0.7,0.1,1S-360.6-1211.3-360.7-1211 M-355.5-1207.2
		c-0.1,0-0.2,0-0.3-0.1l-6.5-2.2c-0.3-0.1-0.5-0.3-0.6-0.6c-0.1-0.3-0.1-0.6,0.1-0.9c0.2-0.3,0.3-0.7,0.3-1.1s-0.1-0.7-0.3-1.1
		c-0.2-0.3-0.2-0.6-0.1-0.9c0.1-0.3,0.3-0.5,0.6-0.6l6.5-2.2c0.3-0.1,0.6-0.1,0.9,0.1c0.3,0.2,0.4,0.5,0.4,0.8v7.5
		c0,0.3-0.2,0.6-0.4,0.8C-355.1-1207.3-355.3-1207.2-355.5-1207.2"/>
	<path class="st1" d="M-366.9-1204h4.7l-1.4-4.1c-0.6,0.2-1.3,0.2-2,0L-366.9-1204z M-360.8-1202h-7.5c-0.3,0-0.6-0.2-0.8-0.4
		s-0.2-0.6-0.1-0.9l2.2-6.5c0.1-0.3,0.3-0.5,0.6-0.6s0.6-0.1,0.9,0.1c0.7,0.4,1.5,0.4,2.1,0c0.3-0.2,0.6-0.2,0.9-0.1
		c0.3,0.1,0.5,0.3,0.6,0.6l2.2,6.5c0.1,0.3,0,0.6-0.1,0.9C-360.2-1202.1-360.5-1202-360.8-1202L-360.8-1202z"/>
	<path class="st1" d="M-372.5-1214.3v4.7l4.1-1.4c-0.1-0.3-0.1-0.7-0.1-1s0-0.7,0.1-1L-372.5-1214.3z M-373.5-1207.2
		c-0.2,0-0.4-0.1-0.6-0.2c-0.3-0.2-0.4-0.5-0.4-0.8v-7.5c0-0.3,0.2-0.6,0.4-0.8c0.3-0.2,0.6-0.2,0.9-0.1l6.5,2.2
		c0.3,0.1,0.5,0.3,0.6,0.6c0.1,0.3,0.1,0.6-0.1,0.9c-0.2,0.3-0.3,0.7-0.3,1.1s0.1,0.7,0.3,1.1c0.2,0.3,0.2,0.6,0.1,0.9
		c-0.1,0.3-0.3,0.5-0.6,0.6l-6.5,2.2C-373.3-1207.2-373.4-1207.2-373.5-1207.2L-373.5-1207.2z"/>
	<path class="st1" d="M-364.5-1216c0.3,0,0.7,0,1,0.1l1.4-4.1h-4.7l1.4,4.1C-365.2-1215.9-364.9-1216-364.5-1216 M-362.9-1213.5
		c-0.2,0-0.4-0.1-0.5-0.2c-0.7-0.4-1.5-0.4-2.1,0c-0.3,0.2-0.6,0.2-0.9,0.1c-0.3-0.1-0.5-0.3-0.6-0.6l-2.2-6.5
		c-0.1-0.3,0-0.6,0.1-0.9c0.2-0.3,0.5-0.4,0.8-0.4h7.5c0.3,0,0.6,0.2,0.8,0.4c0.2,0.3,0.2,0.6,0.1,0.9l-2.2,6.5
		c-0.1,0.3-0.3,0.5-0.6,0.6C-362.7-1213.5-362.8-1213.5-362.9-1213.5"/>
	<path class="st1" d="M-385.5-1229.4l1,1l1-1v-33.6h-2V-1229.4z M-384.5-1226c-0.3,0-0.5-0.1-0.7-0.3l-2-2c-0.2-0.2-0.3-0.4-0.3-0.7
		v-35c0-0.6,0.4-1,1-1h4c0.6,0,1,0.4,1,1v35c0,0.3-0.1,0.5-0.3,0.7l-2,2C-384-1226.1-384.3-1226-384.5-1226L-384.5-1226z"/>
	<path class="st1" d="M-411.5-1235.4l7,7l7-7v-21.6h-14V-1235.4z M-404.5-1226c-0.3,0-0.5-0.1-0.7-0.3l-8-8
		c-0.2-0.2-0.3-0.4-0.3-0.7v-23c0-0.6,0.4-1,1-1h16c0.6,0,1,0.4,1,1v23c0,0.3-0.1,0.5-0.3,0.7l-8,8
		C-404-1226.1-404.3-1226-404.5-1226L-404.5-1226z"/>
	<path class="st1" d="M-405.5-1229.4l1,1l1-1v-27.6h-2V-1229.4z M-404.5-1226c-0.3,0-0.5-0.1-0.7-0.3l-2-2c-0.2-0.2-0.3-0.4-0.3-0.7
		v-29c0-0.6,0.4-1,1-1h4c0.6,0,1,0.4,1,1v29c0,0.3-0.1,0.5-0.3,0.7l-2,2C-404-1226.1-404.3-1226-404.5-1226L-404.5-1226z"/>
	<path class="st1" d="M-371.5-1229.4l7,7l7-7v-21.6h-14V-1229.4z M-364.5-1220c-0.3,0-0.5-0.1-0.7-0.3l-8-8
		c-0.2-0.2-0.3-0.4-0.3-0.7v-23c0-0.6,0.4-1,1-1h16c0.6,0,1,0.4,1,1v23c0,0.3-0.1,0.5-0.3,0.7l-8,8
		C-364-1220.1-364.3-1220-364.5-1220L-364.5-1220z"/>
	<path class="st1" d="M-365.5-1223.4l1,1l1-1v-27.6h-2V-1223.4z M-364.5-1220c-0.3,0-0.5-0.1-0.7-0.3l-2-2c-0.2-0.2-0.3-0.4-0.3-0.7
		v-29c0-0.6,0.4-1,1-1h4c0.6,0,1,0.4,1,1v29c0,0.3-0.1,0.5-0.3,0.7l-2,2C-364-1220.1-364.3-1220-364.5-1220L-364.5-1220z"/>
</g>
<g>
	<g transform="translate(-600.000000, -1246.000000)">
		<g transform="translate(600.000000, 1246.000000)">
			<path class="st1" d="M86.8,10.6l7,7l7-7V-17h-14V10.6z M93.8,20c-0.3,0-0.5-0.1-0.7-0.3l-8-8c-0.2-0.2-0.3-0.4-0.3-0.7v-29
				c0-0.6,0.4-1,1-1h16c0.6,0,1,0.4,1,1v29c0,0.3-0.1,0.5-0.3,0.7l-8,8C94.3,19.9,94.1,20,93.8,20L93.8,20z"/>
			<path class="st1" d="M87.6,32h3.2c0.3,0,0.6,0.1,0.8,0.4l2.2,2.9l2.2-2.9c0.2-0.3,0.5-0.4,0.8-0.4h3.2l-2-3.4
				c-0.2-0.3-0.2-0.7,0-1l2-3.5h-3.2c-0.3,0-0.6-0.1-0.8-0.4l-2.2-2.9l-2.2,2.9c-0.2,0.2-0.5,0.4-0.8,0.4h-3.1l2,3.5
				c0.2,0.3,0.2,0.7,0,1L87.6,32z M93.8,38c-0.3,0-0.6-0.1-0.8-0.4L90.3,34h-4.5c-0.4,0-0.7-0.2-0.9-0.5c-0.2-0.3-0.2-0.7,0-1
				l2.7-4.5L85,23.5c-0.2-0.3-0.2-0.7,0-1s0.5-0.5,0.9-0.5h4.4l2.7-3.5c0.4-0.5,1.2-0.5,1.6,0l2.7,3.5h4.4c0.4,0,0.7,0.2,0.9,0.5
				c0.2,0.3,0.2,0.7,0,1L100,28l2.7,4.5c0.2,0.3,0.2,0.7,0,1s-0.5,0.5-0.9,0.5h-4.5l-2.7,3.6C94.5,37.9,94.2,38,93.8,38L93.8,38z"/>
			<path class="st1" d="M73.8,20c-4.4,0-8,3.6-8,8s3.6,8,8,8s8-3.6,8-8S78.2,20,73.8,20 M73.8,38c-5.5,0-10-4.5-10-10s4.5-10,10-10
				s10,4.5,10,10S79.3,38,73.8,38"/>
			<path class="st1" d="M67.8,29c-0.6,0-1-0.4-1-1c0-3.9,3.1-7,7-7c0.6,0,1,0.4,1,1s-0.4,1-1,1c-2.8,0-5,2.2-5,5
				C68.8,28.6,68.4,29,67.8,29"/>
			<path class="st1" d="M113.8,33c-1.1,0-2,0.9-2,2s0.9,2,2,2s2-0.9,2-2S114.9,33,113.8,33 M113.8,39c-2.2,0-4-1.8-4-4s1.8-4,4-4
				s4,1.8,4,4S116,39,113.8,39"/>
			<path class="st1" d="M117.7,36l4.1,1.4v-4.7l-4.1,1.4c0.1,0.3,0.1,0.7,0.1,1S117.8,35.7,117.7,36 M122.8,39.8
				c-0.1,0-0.2,0-0.3-0.1l-6.5-2.2c-0.3-0.1-0.5-0.3-0.6-0.6s-0.1-0.6,0.1-0.9c0.2-0.3,0.3-0.7,0.3-1.1s-0.1-0.7-0.3-1.1
				c-0.2-0.3-0.2-0.6-0.1-0.9c0.1-0.3,0.3-0.5,0.6-0.6l6.5-2.2c0.3-0.1,0.6-0.1,0.9,0.1c0.3,0.2,0.4,0.5,0.4,0.8v7.5
				c0,0.3-0.2,0.6-0.4,0.8C123.2,39.7,123,39.8,122.8,39.8"/>
			<path class="st1" d="M111.5,43h4.7l-1.4-4.1c-0.6,0.2-1.3,0.2-2,0L111.5,43z M117.6,45h-7.5c-0.3,0-0.6-0.2-0.8-0.4
				c-0.2-0.3-0.2-0.6-0.1-0.9l2.2-6.5c0.1-0.3,0.3-0.5,0.6-0.6c0.3-0.1,0.6-0.1,0.9,0.1c0.7,0.4,1.5,0.4,2.1,0
				c0.3-0.2,0.6-0.2,0.9-0.1c0.3,0.1,0.5,0.3,0.6,0.6l2.2,6.5c0.1,0.3,0.1,0.6-0.1,0.9C118.2,44.9,117.9,45,117.6,45L117.6,45z"/>
			<path class="st1" d="M105.8,32.7v4.7L110,36c-0.1-0.3-0.1-0.7-0.1-1s0-0.7,0.1-1L105.8,32.7z M104.8,39.8c-0.2,0-0.4-0.1-0.6-0.2
				c-0.3-0.2-0.4-0.5-0.4-0.8v-7.5c0-0.3,0.2-0.6,0.4-0.8c0.3-0.2,0.6-0.2,0.9-0.1l6.5,2.2c0.3,0.1,0.5,0.3,0.6,0.6s0.1,0.6-0.1,0.9
				c-0.2,0.3-0.3,0.7-0.3,1.1c0,0.4,0.1,0.7,0.3,1.1c0.2,0.3,0.2,0.6,0.1,0.9c-0.1,0.3-0.3,0.5-0.6,0.6l-6.5,2.2
				C105,39.8,104.9,39.8,104.8,39.8L104.8,39.8z"/>
			<path class="st1" d="M113.8,31c0.3,0,0.7,0,1,0.1l1.4-4.1h-4.7l1.4,4.1C113.2,31.1,113.5,31,113.8,31 M115.4,33.5
				c-0.2,0-0.4-0.1-0.5-0.2c-0.7-0.4-1.5-0.4-2.1,0c-0.3,0.2-0.6,0.2-0.9,0.1c-0.3-0.1-0.5-0.3-0.6-0.6l-2.2-6.5
				c-0.1-0.3-0.1-0.6,0.1-0.9s0.5-0.4,0.8-0.4h7.5c0.3,0,0.6,0.2,0.8,0.4c0.2,0.3,0.2,0.6,0.1,0.9l-2.2,6.5
				c-0.1,0.3-0.3,0.5-0.6,0.6C115.7,33.5,115.5,33.5,115.4,33.5"/>
			<path class="st1" d="M92.8,16.6l1,1l1-1V-17h-2V16.6z M93.8,20c-0.3,0-0.5-0.1-0.7-0.3l-2-2c-0.2-0.2-0.3-0.4-0.3-0.7v-35
				c0-0.6,0.4-1,1-1h4c0.6,0,1,0.4,1,1v35c0,0.3-0.1,0.5-0.3,0.7l-2,2C94.3,19.9,94.1,20,93.8,20L93.8,20z"/>
			<path class="st1" d="M66.8,10.6l7,7l7-7V-11h-14V10.6z M73.8,20c-0.3,0-0.5-0.1-0.7-0.3l-8-8c-0.2-0.2-0.3-0.4-0.3-0.7v-23
				c0-0.6,0.4-1,1-1h16c0.6,0,1,0.4,1,1v23c0,0.3-0.1,0.5-0.3,0.7l-8,8C74.3,19.9,74.1,20,73.8,20L73.8,20z"/>
			<path class="st1" d="M72.8,16.6l1,1l1-1V-11h-2V16.6z M73.8,20c-0.3,0-0.5-0.1-0.7-0.3l-2-2c-0.2-0.2-0.3-0.4-0.3-0.7v-29
				c0-0.6,0.4-1,1-1h4c0.6,0,1,0.4,1,1v29c0,0.3-0.1,0.5-0.3,0.7l-2,2C74.3,19.9,74.1,20,73.8,20L73.8,20z"/>
			<path class="st1" d="M106.8,17.6l7,7l7-7V-4h-14V17.6z M113.8,27c-0.3,0-0.5-0.1-0.7-0.3l-8-8c-0.2-0.2-0.3-0.4-0.3-0.7V-5
				c0-0.6,0.4-1,1-1h16c0.6,0,1,0.4,1,1v23c0,0.3-0.1,0.5-0.3,0.7l-8,8C114.3,26.9,114.1,27,113.8,27L113.8,27z"/>
			<path class="st1" d="M112.8,23.6l1,1l1-1V-4h-2V23.6z M113.8,27c-0.3,0-0.5-0.1-0.7-0.3l-2-2c-0.2-0.2-0.3-0.4-0.3-0.7V-5
				c0-0.6,0.4-1,1-1h4c0.6,0,1,0.4,1,1v29c0,0.3-0.1,0.5-0.3,0.7l-2,2C114.3,26.9,114.1,27,113.8,27L113.8,27z"/>
		</g>
	</g>
</g>
<g>
	<g transform="translate(-600.000000, -1246.000000)">
		<g transform="translate(600.000000, 1246.000000)">
			<path class="st1" d="M147.5,10.6l7,7l7-7V-17h-14V10.6z M154.5,20c-0.3,0-0.5-0.1-0.7-0.3l-8-8c-0.2-0.2-0.3-0.4-0.3-0.7v-29
				c0-0.6,0.4-1,1-1h16c0.6,0,1,0.4,1,1v29c0,0.3-0.1,0.5-0.3,0.7l-8,8C155,19.9,154.8,20,154.5,20L154.5,20z"/>
			<path class="st1" d="M148.3,32h3.2c0.3,0,0.6,0.1,0.8,0.4l2.2,2.9l2.2-2.9c0.2-0.3,0.5-0.4,0.8-0.4h3.2l-2.1-3.5
				c-0.2-0.3-0.2-0.7,0-1l2-3.5h-3.2c-0.3,0-0.6-0.1-0.8-0.4l-2.2-2.9l-2.2,2.9c-0.2,0.2-0.5,0.4-0.8,0.4h-3.1l2,3.5
				c0.2,0.3,0.2,0.7,0,1L148.3,32z M154.5,38c-0.3,0-0.6-0.1-0.8-0.4L151,34h-4.5c-0.4,0-0.7-0.2-0.9-0.5s-0.2-0.7,0-1l2.7-4.5
				l-2.6-4.5c-0.2-0.3-0.2-0.7,0-1s0.5-0.5,0.9-0.5h4.4l2.7-3.5c0.4-0.5,1.2-0.5,1.6,0L158,22h4.4c0.4,0,0.7,0.2,0.9,0.5
				s0.2,0.7,0,1l-2.6,4.5l2.7,4.5c0.2,0.3,0.2,0.7,0,1s-0.5,0.5-0.9,0.5H158l-2.7,3.6C155.1,37.9,154.8,38,154.5,38L154.5,38z"/>
			<path class="st1" d="M134.5,20c-4.4,0-8,3.6-8,8s3.6,8,8,8s8-3.6,8-8S138.9,20,134.5,20 M134.5,38c-5.5,0-10-4.5-10-10
				s4.5-10,10-10s10,4.5,10,10S140,38,134.5,38"/>
			<path class="st1" d="M128.5,29c-0.6,0-1-0.4-1-1c0-3.9,3.1-7,7-7c0.6,0,1,0.4,1,1s-0.4,1-1,1c-2.8,0-5,2.2-5,5
				C129.5,28.6,129.1,29,128.5,29"/>
			<path class="st1" d="M174.5,33c-1.1,0-2,0.9-2,2s0.9,2,2,2s2-0.9,2-2S175.6,33,174.5,33 M174.5,39c-2.2,0-4-1.8-4-4s1.8-4,4-4
				s4,1.8,4,4S176.7,39,174.5,39"/>
			<path class="st1" d="M178.4,36l4.1,1.4v-4.7l-4.1,1.4c0.1,0.3,0.1,0.7,0.1,1S178.5,35.7,178.4,36 M183.5,39.8
				c-0.1,0-0.2,0-0.3-0.1l-6.5-2.2c-0.3-0.1-0.5-0.3-0.6-0.6s-0.1-0.6,0.1-0.9c0.2-0.3,0.3-0.7,0.3-1.1s-0.1-0.7-0.3-1.1
				c-0.2-0.3-0.2-0.6-0.1-0.9c0.1-0.3,0.3-0.5,0.6-0.6l6.5-2.2c0.3-0.1,0.6-0.1,0.9,0.1c0.3,0.2,0.4,0.5,0.4,0.8v7.5
				c0,0.3-0.2,0.6-0.4,0.8C183.9,39.7,183.7,39.8,183.5,39.8"/>
			<path class="st1" d="M172.1,43h4.7l-1.4-4.1c-0.6,0.2-1.3,0.2-2,0L172.1,43z M178.2,45h-7.5c-0.3,0-0.6-0.2-0.8-0.4
				c-0.2-0.3-0.2-0.6-0.1-0.9l2.2-6.5c0.1-0.3,0.3-0.5,0.6-0.6s0.6-0.1,0.9,0.1c0.7,0.4,1.5,0.4,2.1,0c0.3-0.2,0.6-0.2,0.9-0.1
				c0.3,0.1,0.5,0.3,0.6,0.6l2.2,6.5c0.1,0.3,0.1,0.6-0.1,0.9C178.9,44.9,178.6,45,178.2,45L178.2,45z"/>
			<path class="st1" d="M166.5,32.7v4.7l4.1-1.4c-0.1-0.3-0.1-0.7-0.1-1s0-0.7,0.1-1L166.5,32.7z M165.5,39.8
				c-0.2,0-0.4-0.1-0.6-0.2c-0.3-0.2-0.4-0.5-0.4-0.8v-7.5c0-0.3,0.2-0.6,0.4-0.8c0.3-0.2,0.6-0.2,0.9-0.1l6.5,2.2
				c0.3,0.1,0.5,0.3,0.6,0.6s0.1,0.6-0.1,0.9c-0.2,0.3-0.3,0.7-0.3,1.1c0,0.4,0.1,0.7,0.3,1.1c0.2,0.3,0.2,0.6,0.1,0.9
				c-0.1,0.3-0.3,0.5-0.6,0.6l-6.5,2.2C165.7,39.8,165.6,39.8,165.5,39.8L165.5,39.8z"/>
			<path class="st1" d="M174.5,31c0.3,0,0.7,0,1,0.1l1.4-4.1h-4.7l1.4,4.1C173.8,31.1,174.2,31,174.5,31 M176.1,33.5
				c-0.2,0-0.4-0.1-0.5-0.2c-0.7-0.4-1.5-0.4-2.1,0c-0.3,0.2-0.6,0.2-0.9,0.1c-0.3-0.1-0.5-0.3-0.6-0.6l-2.2-6.5
				c-0.1-0.3,0-0.6,0.1-0.9c0.2-0.3,0.5-0.4,0.8-0.4h7.5c0.3,0,0.6,0.2,0.8,0.4c0.2,0.3,0.2,0.6,0.1,0.9l-2.2,6.5
				c-0.1,0.3-0.3,0.5-0.6,0.6C176.3,33.5,176.2,33.5,176.1,33.5"/>
			<path class="st1" d="M153.5,16.6l1,1l1-1V-17h-2V16.6z M154.5,20c-0.3,0-0.5-0.1-0.7-0.3l-2-2c-0.2-0.2-0.3-0.4-0.3-0.7v-35
				c0-0.6,0.4-1,1-1h4c0.6,0,1,0.4,1,1v35c0,0.3-0.1,0.5-0.3,0.7l-2,2C155,19.9,154.8,20,154.5,20L154.5,20z"/>
			<path class="st1" d="M127.5,10.6l7,7l7-7V-11h-14V10.6z M134.5,20c-0.3,0-0.5-0.1-0.7-0.3l-8-8c-0.2-0.2-0.3-0.4-0.3-0.7v-23
				c0-0.6,0.4-1,1-1h16c0.6,0,1,0.4,1,1v23c0,0.3-0.1,0.5-0.3,0.7l-8,8C135,19.9,134.8,20,134.5,20L134.5,20z"/>
			<path class="st1" d="M133.5,16.6l1,1l1-1V-11h-2V16.6z M134.5,20c-0.3,0-0.5-0.1-0.7-0.3l-2-2c-0.2-0.2-0.3-0.4-0.3-0.7v-29
				c0-0.6,0.4-1,1-1h4c0.6,0,1,0.4,1,1v29c0,0.3-0.1,0.5-0.3,0.7l-2,2C135,19.9,134.8,20,134.5,20L134.5,20z"/>
			<path class="st1" d="M167.5,17.6l7,7l7-7V-4h-14V17.6z M174.5,27c-0.3,0-0.5-0.1-0.7-0.3l-8-8c-0.2-0.2-0.3-0.4-0.3-0.7V-5
				c0-0.6,0.4-1,1-1h16c0.6,0,1,0.4,1,1v23c0,0.3-0.1,0.5-0.3,0.7l-8,8C175,26.9,174.8,27,174.5,27L174.5,27z"/>
			<path class="st1" d="M173.5,23.6l1,1l1-1V-4h-2V23.6z M174.5,27c-0.3,0-0.5-0.1-0.7-0.3l-2-2c-0.2-0.2-0.3-0.4-0.3-0.7V-5
				c0-0.6,0.4-1,1-1h4c0.6,0,1,0.4,1,1v29c0,0.3-0.1,0.5-0.3,0.7l-2,2C175,26.9,174.8,27,174.5,27L174.5,27z"/>
		</g>
	</g>
</g>
</svg>
