<?xml version="1.0" encoding="UTF-8"?>
<svg width="496px" height="501px" viewBox="0 0 496 501" version="1.1" xmlns="http://www.w3.org/2000/svg" xmlns:xlink="http://www.w3.org/1999/xlink">
    <!-- Generator: Sketch 39.1 (31720) - http://www.bohemiancoding.com/sketch -->
    <title>team-turbek-logo</title>
    <desc>Created with Sketch.</desc>
    <defs></defs>
    <g id="Page-1" stroke="none" stroke-width="1" fill="none" fill-rule="evenodd">
        <g id="team-turbek-logo" fill="#000000">
            <path d="M349.041462,279.489478 C349.041462,228.548889 366.085044,200.135599 406.209895,200.135599 L495.690921,200.135599 L495.690921,108 L392.005429,108 C359.853802,108 313,112.351076 313,209.099351 L313,500.399491 L349.041462,500.399491 L349.041462,279.489478 L349.041462,279.489478 L349.041462,279.489478 Z" id="path-1"></path>
            <path d="M293.153052,500.408442 L293.153052,200.935294 C293.153052,122.540614 331.234728,92.0929896 373.020585,92.0929896 L494.991956,92.0929896 L494.991956,0 L346.618291,0 C333.734137,0 257,3.74067697 257,109.734121 L257,500.408442 L293.153052,500.408442 L293.153052,500.408442 L293.153052,500.408442 Z" id="path-3"></path>
            <path d="M0,92.0929896 L121.913108,92.0929896 C163.697978,92.0929896 201.779653,122.540614 201.779653,200.935294 L201.779653,500.408442 L237.932705,500.408442 L237.932705,109.734121 C237.932705,3.74067697 161.198568,0 148.314415,0 L0,0 L0,92.0929896 L0,92.0929896 L0,92.0929896 L0,92.0929896 Z" id="path-5"></path>
            <path d="M89.4507855,200.174441 C129.588654,200.174441 146.637766,228.596949 146.637766,279.554065 L146.637766,500.535748 L182.690921,500.535748 L182.690921,209.141101 C182.690921,112.361439 135.821918,108.008951 103.658872,108.008951 L0,108.008951 L0,200.174441 L89.4507855,200.174441 Z" id="path-7"></path>
        </g>
    </g>
</svg>